<?xml version="1.0" standalone="no"?>
<!DOCTYPE svg PUBLIC "-//W3C//DTD SVG 20010904//EN"
 "http://www.w3.org/TR/2001/REC-SVG-20010904/DTD/svg10.dtd">
<svg version="1.0" xmlns="http://www.w3.org/2000/svg"
 width="478.000000pt" height="554.000000pt" viewBox="0 0 478.000000 554.000000"
 preserveAspectRatio="xMidYMid meet">

<g transform="translate(0.000000,554.000000) scale(0.100000,-0.100000)"
 >
<path d="M1445 5524 c-319 -58 -588 -316 -665 -637 -18 -76 -20 -119 -20 -566
l0 -484 -42 46 c-54 57 -108 75 -170 58 -34 -10 -88 -51 -238 -183 -107 -93
-204 -184 -215 -201 -13 -20 -19 -48 -19 -83 0 -94 78 -174 171 -174 23 0 52
4 65 9 25 10 390 326 425 369 l23 27 2 -1510 3 -1510 24 -70 c97 -288 291
-481 576 -576 l70 -23 910 -4 c893 -3 912 -3 1001 18 330 76 588 352 644 690
7 45 10 682 8 2095 l-3 2030 -23 75 c-90 289 -297 496 -589 587 l-88 28 -885
2 c-737 1 -898 -1 -965 -13z m1864 -39 c163 -31 285 -98 417 -230 123 -122
197 -264 223 -425 7 -44 11 -716 11 -2062 0 -2162 2 -2070 -53 -2208 -94 -231
-302 -420 -538 -487 -60 -17 -127 -18 -994 -18 l-930 0 -75 23 c-139 43 -274
132 -367 239 -67 77 -128 173 -153 241 -52 139 -50 41 -50 2220 0 2211 -3
2076 57 2222 104 254 362 456 628 493 17 2 415 5 886 6 733 1 868 -1 938 -14z
m-2648 -1598 c52 -32 77 -124 48 -180 -14 -25 -361 -337 -398 -357 -28 -15
-97 -12 -130 5 -40 20 -75 94 -66 137 4 18 13 43 21 55 19 30 369 335 402 351
30 13 92 8 123 -11z"/>
<path d="M1715 4507 c-195 -65 -316 -240 -303 -440 l5 -74 -36 -19 c-19 -10
-67 -44 -106 -75 -156 -123 -269 -300 -315 -491 -19 -81 -20 -119 -20 -1273 0
-1161 1 -1192 20 -1275 38 -159 149 -345 269 -453 67 -60 181 -131 267 -165
157 -63 143 -62 889 -62 637 0 685 1 760 19 187 45 320 124 453 266 118 127
188 261 223 430 18 85 19 156 19 1240 0 1082 -1 1155 -19 1240 -60 289 -259
532 -531 648 -149 63 -184 67 -623 67 l-393 0 -11 70 c-22 142 -111 262 -240
323 -60 28 -80 32 -168 34 -63 2 -115 -2 -140 -10z m287 -59 c138 -64 228
-201 228 -348 0 -346 -410 -524 -658 -287 -162 155 -163 410 -5 559 90 84 156
108 283 105 79 -2 105 -7 152 -29z m1163 -422 c94 -27 254 -111 321 -168 166
-143 270 -324 304 -530 14 -88 14 -2300 -1 -2388 -44 -275 -222 -513 -472
-635 -173 -83 -126 -79 -897 -83 -582 -2 -696 0 -760 12 -171 35 -306 109
-435 240 -149 151 -225 313 -245 528 -8 76 -10 474 -8 1213 4 1094 4 1100 26
1182 43 164 123 303 239 414 62 61 171 140 190 139 4 -1 19 -24 32 -53 32 -68
122 -155 197 -192 50 -24 74 -29 162 -33 89 -4 112 -1 165 18 153 56 244 164
281 333 l7 28 417 -4 c357 -3 426 -6 477 -21z"/>
<path d="M1730 4422 c-150 -55 -230 -170 -230 -327 0 -138 61 -240 182 -306
59 -32 69 -34 158 -34 84 0 101 3 148 28 124 65 185 158 191 294 4 98 -14 161
-65 227 -88 116 -253 166 -384 118z m243 -42 c56 -28 122 -91 148 -142 25 -49
38 -137 28 -197 -23 -149 -156 -261 -309 -261 -154 0 -285 112 -310 264 -9 59
3 144 30 196 34 66 120 137 191 159 56 17 169 7 222 -19z"/>
<path
        fill="red" d="M1399 3567 c-69 -45 -69 -48 -69 -470 0 -422 1 -426 66 -471 l39 -26
390 0 c372 0 392 1 423 20 18 11 41 34 52 52 19 31 20 51 20 423 0 372 -1 392
-20 423 -11 18 -34 41 -52 52 -31 19 -51 20 -424 20 -390 0 -391 0 -425 -23z
m857 -29 c22 -21 38 -48 44 -73 5 -22 10 -188 10 -370 0 -181 -5 -348 -10
-370 -6 -25 -22 -52 -44 -72 l-36 -33 -115 0 c-111 0 -115 1 -105 19 13 25 13
67 0 92 -10 17 -7 19 28 19 25 0 49 8 66 21 l26 20 0 -40 c0 -52 27 -81 75
-81 22 0 43 8 55 20 19 19 20 33 20 408 0 372 -1 390 -19 406 -12 11 -36 18
-57 18 -47 0 -74 -29 -74 -79 l0 -34 -26 20 c-25 20 -39 21 -272 21 -234 0
-247 -1 -267 -20 l-22 -21 -6 42 c-7 54 -24 70 -77 71 -34 0 -48 -5 -62 -22
-17 -21 -18 -51 -18 -400 0 -367 1 -378 21 -404 16 -20 29 -26 59 -26 48 0 80
35 80 88 l0 35 23 -21 c14 -13 36 -22 55 -22 29 0 32 -2 22 -19 -14 -27 -13
-84 2 -99 9 -9 -11 -12 -94 -12 -92 0 -109 3 -132 21 -56 44 -56 46 -56 454 0
408 0 410 56 454 26 20 36 21 420 21 l394 0 36 -32z"/>
<path d="M2530 3571 c-19 -10 -45 -36 -57 -57 -22 -38 -23 -44 -23 -419 0
-379 0 -380 23 -418 48 -79 34 -77 470 -77 409 0 408 0 459 48 45 42 50 91 46
484 -3 343 -4 358 -24 385 -11 15 -36 38 -54 51 -33 22 -35 22 -419 22 -357 0
-389 -1 -421 -19z m831 -18 c16 -10 38 -36 49 -58 19 -39 20 -63 20 -400 0
-337 -1 -361 -20 -400 -31 -64 -59 -75 -191 -75 -88 0 -110 3 -101 12 16 16
16 90 0 106 -9 9 -2 12 32 12 31 0 50 6 67 22 l23 21 0 -38 c0 -52 31 -85 80
-85 25 0 43 7 56 21 18 20 19 44 22 392 3 391 0 420 -42 433 -67 22 -116 -10
-116 -74 l0 -35 -23 21 c-23 21 -30 22 -269 22 -233 0 -247 -1 -272 -21 l-26
-20 0 34 c0 51 -27 79 -75 79 -30 0 -45 -6 -62 -27 l-23 -26 0 -375 0 -375 25
-24 c52 -53 135 -18 135 57 l0 39 26 -20 c15 -12 40 -21 56 -21 25 0 27 -2 18
-19 -13 -25 -13 -67 1 -93 10 -19 9 -20 -99 -16 -101 3 -113 5 -136 27 -15 14
-31 41 -37 60 -6 23 -9 170 -7 408 3 359 4 373 24 400 39 53 40 53 452 53 346
0 387 -2 413 -17z"/>
<path d="M1406 2487 c-76 -43 -76 -43 -76 -472 0 -424 0 -427 69 -472 34 -23
35 -23 429 -23 l395 0 34 26 c64 48 63 43 63 472 0 539 47 492 -495 492 -375
0 -381 -1 -419 -23z m835 -20 c64 -43 64 -42 64 -457 0 -356 -1 -377 -20 -408
-32 -54 -85 -72 -205 -72 -99 0 -102 1 -87 18 19 21 23 82 6 99 -7 7 2 12 31
16 24 3 53 15 66 28 l24 22 0 -39 c0 -58 22 -84 72 -84 81 0 78 -18 78 423 0
439 2 427 -72 427 -51 0 -78 -27 -78 -80 l0 -39 -25 24 -24 25 -244 0 c-232 0
-246 -1 -271 -21 l-26 -20 0 29 c0 16 -9 41 -21 56 -27 34 -88 37 -119 4 -19
-21 -20 -33 -20 -403 0 -370 1 -382 20 -403 15 -15 33 -22 60 -22 48 0 80 35
80 88 l0 35 23 -21 c13 -12 38 -25 56 -28 23 -5 29 -10 22 -17 -17 -17 -13
-78 6 -99 15 -17 13 -18 -78 -18 -109 0 -151 15 -186 69 -23 34 -23 36 -23
413 0 418 0 420 63 458 30 19 53 20 413 20 380 0 381 0 415 -23z"/>
<path d="M2527 2488 c-22 -13 -45 -38 -57 -63 -19 -39 -20 -62 -20 -416 1
-417 2 -421 69 -466 l34 -23 400 0 400 0 42 43 c56 55 57 66 53 492 -3 319 -4
342 -23 374 -11 19 -33 43 -48 55 -28 20 -40 21 -420 23 -388 3 -392 3 -430
-19z m834 -21 c68 -45 69 -51 69 -449 0 -397 -3 -417 -64 -461 -27 -19 -46
-22 -151 -26 -118 -3 -120 -3 -102 16 19 22 23 83 6 100 -7 7 2 12 31 16 24 3
53 15 66 28 l24 22 0 -41 c0 -55 26 -82 78 -82 27 0 45 7 58 21 18 20 19 41
19 404 0 363 -1 384 -19 404 -13 14 -31 21 -58 21 -49 0 -78 -28 -78 -76 l0
-35 -26 20 c-25 20 -39 21 -271 21 l-244 0 -24 -25 -25 -24 0 38 c0 51 -29 81
-80 81 -30 0 -43 -6 -59 -26 -20 -26 -21 -37 -21 -399 0 -362 1 -373 21 -399
16 -20 29 -26 60 -26 53 0 79 27 79 82 l0 41 23 -21 c13 -12 38 -25 56 -28 23
-5 29 -10 22 -17 -17 -17 -13 -78 7 -100 17 -19 15 -19 -89 -15 -117 4 -145
15 -179 71 -19 30 -20 53 -20 407 0 345 1 378 18 410 37 69 42 70 463 70 374
0 376 0 410 -23z"/>
<path d="M1430 1419 c-14 -6 -36 -20 -48 -32 -52 -48 -52 -49 -52 -460 0 -382
0 -384 23 -417 12 -18 35 -43 50 -54 28 -20 41 -21 409 -24 366 -3 382 -2 422
18 84 41 81 24 84 468 3 386 2 394 -19 431 -12 21 -38 48 -59 60 -37 20 -49
21 -411 20 -224 0 -384 -4 -399 -10z m800 -27 c19 -9 43 -33 55 -52 19 -34 20
-51 20 -410 0 -359 -1 -376 -20 -410 -33 -56 -73 -70 -199 -70 -105 0 -108 1
-93 18 19 21 22 64 7 93 -10 17 -7 19 24 19 22 0 45 9 65 26 l31 26 0 -40 c0
-55 27 -86 73 -86 21 0 45 8 57 19 20 18 20 28 20 411 l0 393 -22 15 c-31 22
-84 20 -108 -4 -14 -14 -20 -34 -20 -62 -1 -36 -3 -40 -13 -27 -27 36 -52 39
-290 39 -222 0 -236 -1 -261 -21 l-26 -20 0 31 c0 41 -39 80 -80 80 -19 0 -40
-9 -55 -25 l-25 -24 0 -379 c0 -352 1 -381 18 -402 14 -17 29 -23 61 -23 53 0
70 17 80 79 5 27 9 43 10 37 1 -16 53 -43 83 -43 17 0 19 -3 10 -12 -17 -17
-15 -84 4 -102 14 -15 7 -16 -81 -16 -112 0 -154 15 -185 65 -19 31 -20 49
-20 415 0 366 1 384 20 415 39 64 45 65 455 65 333 0 373 -2 405 -18z"/>
<path d="M2545 1416 c-41 -18 -83 -69 -90 -109 -3 -18 -5 -199 -3 -404 3 -359
4 -373 24 -400 11 -15 36 -38 54 -50 33 -23 35 -23 409 -23 371 0 377 0 421
22 26 14 53 37 65 58 19 33 20 52 20 420 l0 385 -24 38 c-12 21 -40 46 -62 57
-36 19 -59 20 -411 20 -287 -1 -380 -4 -403 -14z m804 -24 c19 -9 44 -30 55
-45 20 -28 21 -40 21 -417 0 -377 -1 -389 -21 -417 -36 -49 -77 -63 -192 -63
-98 0 -102 1 -92 19 14 27 13 84 -2 99 -9 9 -5 12 20 12 37 0 87 23 95 42 3 7
6 -4 6 -25 1 -21 6 -47 12 -58 26 -49 117 -43 138 9 8 20 11 139 9 401 l-3
373 -24 19 c-54 44 -131 8 -131 -62 l0 -38 -26 24 -27 25 -234 0 c-238 0 -263
-3 -290 -39 -10 -14 -12 -10 -13 20 0 54 -32 89 -80 89 -30 0 -43 -6 -59 -26
-20 -26 -21 -38 -21 -395 0 -252 4 -376 11 -393 23 -50 103 -57 134 -13 8 12
15 39 15 60 l0 39 31 -26 c17 -14 42 -26 55 -26 21 0 23 -3 14 -19 -15 -30
-12 -72 7 -94 18 -19 16 -19 -94 -15 -103 3 -114 5 -138 28 -55 52 -55 49 -55
450 0 397 0 400 52 446 12 12 30 24 38 27 8 3 182 6 385 6 333 1 373 -1 404
-17z"/>
<path d="M4127 3935 c-77 -27 -117 -84 -117 -168 0 -40 6 -62 23 -85 26 -38
401 -350 435 -363 38 -15 105 -10 139 9 18 9 46 34 62 56 26 32 31 48 31 92 0
29 -7 68 -16 86 -19 40 -397 357 -446 375 -43 15 -65 15 -111 -2z m143 -60
c19 -13 111 -88 205 -167 132 -111 172 -151 181 -178 17 -53 6 -97 -36 -141
-33 -35 -42 -39 -84 -39 -26 0 -57 5 -69 11 -37 20 -391 320 -404 343 -19 33
-16 104 7 140 18 29 39 46 80 60 27 9 84 -5 120 -29z"/>
</g>
</svg>
