<svg version="1.0" xmlns="http://www.w3.org/2000/svg"
     width="475.000000pt" height="864.000000pt" viewBox="0 0 475.000000 864.000000"
     preserveAspectRatio="xMidYMid meet">

    <g transform="translate(0.000000,864.000000) scale(0.100000,-0.100000)"
       stroke="none">
        <path d="M1310 8629 c-361 -42 -680 -287 -812 -626 -69 -177 -68 -154 -68
-1200 0 -519 -3 -943 -6 -943 -3 0 -17 9 -31 20 -36 28 -111 27 -147 -1 -37
-29 -227 -286 -236 -320 -19 -67 30 -149 102 -171 31 -9 45 -8 82 6 40 15 57
33 138 144 l93 127 5 -2415 5 -2415 23 -80 c123 -422 443 -697 865 -744 126
-14 1955 -15 2087 -1 272 29 527 172 692 390 62 81 140 239 170 345 l22 80 6
2424 5 2424 98 -126 c53 -70 111 -134 127 -142 66 -34 163 -7 195 55 18 35 19
107 2 136 -35 59 -214 279 -241 295 -45 28 -107 25 -144 -6 -17 -14 -32 -25
-36 -25 -3 0 -7 440 -9 978 l-3 977 -22 80 c-30 105 -108 264 -170 345 -165
218 -420 361 -692 390 -116 12 -1992 11 -2100 -1z m2225 -52 c192 -57 344
-146 464 -272 118 -124 201 -275 243 -441 l23 -89 0 -3455 0 -3455 -23 -89
c-42 -166 -125 -317 -243 -441 -123 -129 -290 -226 -469 -271 -72 -18 -126
-19 -1175 -19 l-1100 0 -90 28 c-344 108 -578 348 -672 692 l-28 100 0 3455 0
3455 28 100 c74 270 237 479 477 613 64 36 214 88 291 101 31 5 524 8 1134 7
999 -2 1085 -3 1140 -19z m942 -2723 c40 -25 224 -272 230 -308 11 -71 -57
-136 -129 -122 -41 8 -48 14 -172 175 -85 111 -96 130 -96 166 0 91 90 139
167 89z m-4107 1 c33 -17 60 -61 60 -97 0 -30 -24 -69 -131 -209 -52 -68 -98
-119 -112 -123 -50 -13 -79 -6 -113 28 -47 47 -46 86 4 157 183 261 213 285
292 244z"/>
        <path d="M1454 6116 c-439 -81 -763 -412 -824 -841 -8 -58 -10 -646 -8 -2150
l3 -2070 26 -95 c82 -292 267 -516 532 -645 111 -53 211 -81 337 -95 125 -13
1535 -13 1660 0 425 45 760 334 872 751 l23 84 3 2070 c2 1504 0 2092 -8 2150
-30 210 -122 395 -274 553 -123 128 -281 220 -466 271 l-95 26 -855 2 c-665 1
-871 -1 -926 -11z m1899 -59 c385 -120 647 -438 687 -834 8 -76 10 -708 8
-2128 l-3 -2020 -26 -95 c-81 -292 -251 -501 -512 -630 -56 -28 -140 -60 -187
-73 -85 -22 -86 -22 -970 -22 -884 0 -885 0 -970 22 -170 45 -369 165 -479
289 -102 114 -182 269 -223 430 l-23 89 0 2075 c0 2236 -2 2125 51 2284 93
274 331 512 600 600 138 45 132 45 1069 43 l890 -2 88 -28z"/>
        <path d="M1490 5959 c-30 -5 -77 -20 -105 -33 -64 -30 -158 -105 -151 -121 2
-7 -3 -15 -12 -18 -26 -6 -70 -99 -83 -174 -11 -61 -8 -140 7 -204 5 -24 2
-28 -27 -34 -45 -10 -181 -79 -200 -102 -30 -36 -99 -160 -116 -208 -14 -43
-17 -106 -20 -460 -4 -378 -2 -416 15 -482 46 -172 173 -299 344 -344 64 -17
110 -19 413 -19 190 0 366 5 396 10 132 25 279 130 333 239 61 122 61 120 61
571 0 381 -2 420 -19 470 -50 146 -128 238 -248 295 -89 41 -111 46 -116 23
-2 -12 3 -18 15 -18 10 0 41 -11 68 -24 47 -22 49 -23 25 -31 -38 -11 -79 -55
-90 -94 -5 -20 -10 -116 -10 -213 l0 -176 -29 14 c-25 12 -87 14 -371 12
l-342 -3 -34 -37 -34 -38 0 -338 c0 -336 0 -339 23 -373 14 -21 35 -37 59 -44
35 -10 36 -11 23 -35 -35 -62 2 -141 80 -168 27 -9 23 -10 -35 -11 -247 -2
-438 142 -486 368 -10 49 -14 154 -14 417 0 366 5 431 43 519 l22 50 5 -496 5
-496 28 -36 c39 -51 91 -66 151 -43 30 11 52 29 66 50 19 32 20 47 20 558 0
359 -4 535 -11 557 -6 17 -27 42 -46 55 l-34 23 41 17 c48 19 80 21 80 4 1
-22 69 -108 86 -108 8 0 13 -4 9 -9 -8 -14 77 -69 139 -91 114 -39 245 -32
342 18 43 22 134 99 134 112 0 5 11 20 25 34 13 13 27 37 31 53 4 15 13 35 20
43 21 24 34 132 24 200 -5 34 -22 89 -38 123 -34 73 -115 167 -144 167 -10 0
-17 4 -14 9 6 9 -52 38 -66 33 -5 -1 -8 2 -8 7 0 23 -151 43 -230 30z m145
-49 c-3 -5 3 -10 13 -10 31 0 159 -70 179 -98 10 -13 30 -38 45 -55 49 -55 46
-130 -5 -142 -12 -3 -53 -9 -92 -15 -57 -7 -73 -6 -90 6 -76 56 -91 64 -122
64 -42 0 -71 -14 -99 -48 -22 -27 -41 -29 -139 -19 -96 9 -101 12 -104 60 -1
33 5 53 30 91 18 26 40 53 51 59 10 7 18 20 18 30 0 10 6 17 13 16 17 -3 67
22 67 34 0 6 3 8 6 4 3 -3 18 -1 33 5 14 6 64 14 111 18 47 4 86 8 88 9 2 0 0
-3 -3 -9z m10 -312 c51 -60 23 -146 -54 -169 -80 -24 -156 51 -132 131 27 91
125 111 186 38z m-290 -103 c58 -8 106 -35 129 -70 l16 -25 -145 0 -145 0 -6
24 c-3 14 -3 33 0 44 8 23 49 44 71 36 9 -4 15 -1 15 7 0 10 2 11 8 2 4 -6 30
-14 57 -18z m553 -13 c6 -9 12 -31 12 -49 l0 -33 -146 0 c-132 0 -145 2 -142
17 6 34 79 72 153 82 79 9 105 6 123 -17z m-392 -136 c4 -18 1 -108 -6 -133
-3 -12 -37 -33 -54 -33 -26 0 -112 36 -121 50 -3 5 -13 6 -21 3 -10 -4 -14 -1
-12 8 1 8 -10 31 -27 51 -22 28 -32 34 -42 26 -10 -8 -13 -6 -13 6 0 9 6 16
13 17 9 0 9 2 -1 6 -36 14 14 23 138 23 139 0 140 0 146 -24z m374 12 c0 -24
-63 -98 -113 -132 -71 -49 -127 -58 -151 -25 -16 24 -24 148 -9 163 11 11 273
6 273 -6z m-819 -88 c48 -26 49 -34 49 -580 0 -357 -3 -518 -11 -533 -32 -63
-111 -77 -160 -28 l-29 29 0 523 0 523 37 38 c39 40 75 48 114 28z m1074 -16
c66 -31 65 -22 62 -597 l-2 -519 -33 -29 c-18 -16 -44 -29 -58 -29 -37 0 -84
27 -94 56 -6 15 -10 238 -10 543 0 514 0 519 21 545 20 25 50 44 72 45 5 1 24
-6 42 -15z m144 -202 c20 -58 21 -83 21 -472 0 -387 -1 -414 -20 -471 -66
-195 -214 -302 -437 -314 l-98 -6 41 19 c23 11 49 30 58 43 18 26 22 100 6
128 -8 17 -4 19 42 23 50 5 87 31 100 69 3 8 12 7 35 -5 45 -23 114 -21 147 5
57 45 56 34 56 581 0 544 0 546 49 400z m-341 -272 c21 -20 22 -28 22 -205 l0
-184 -35 15 c-51 21 -650 21 -702 -1 -19 -8 -38 -15 -40 -15 -3 0 -3 81 -1
179 3 174 4 180 27 205 l24 26 342 0 c330 0 342 -1 363 -20z m-4 -421 c22 -17
26 -28 26 -69 0 -41 -4 -52 -26 -69 -26 -20 -38 -21 -359 -21 -321 0 -333 1
-359 21 -22 17 -26 28 -26 69 0 41 4 52 26 69 26 20 38 21 359 21 321 0 333
-1 359 -21z m-366 -187 c220 -1 359 1 371 7 16 9 19 6 25 -29 3 -21 2 -49 -3
-62 -20 -52 -17 -52 -388 -51 -401 1 -383 -3 -391 99 -4 53 -3 57 14 48 11 -5
178 -10 372 -12z m241 -198 c28 -35 26 -77 -3 -111 l-24 -28 -225 0 c-225 0
-225 0 -251 24 -33 31 -35 85 -4 118 21 23 24 23 254 23 l233 0 20 -26z"/>
        <path d="M1517 5598 c-21 -17 -38 -63 -30 -85 29 -81 153 -64 153 21 0 56 -78
97 -123 64z"/>
        <path d="M2800 5389 c-25 -5 -88 -30 -140 -56 -100 -50 -112 -63 -179 -179
-59 -103 -61 -118 -61 -574 0 -456 1 -470 61 -576 64 -113 200 -210 328 -234
71 -13 713 -13 782 0 130 25 267 124 327 238 62 117 63 127 60 593 -3 417 -3
425 -26 481 -65 161 -183 265 -344 303 -50 12 -136 15 -413 14 -192 -1 -370
-5 -395 -10z m845 -48 c33 -13 64 -27 68 -31 5 -4 -9 -16 -30 -26 -66 -33 -73
-60 -73 -281 l0 -192 -35 15 c-48 20 -659 21 -708 1 -61 -26 -62 -29 -67 -271
-5 -179 -6 -139 -8 212 -2 474 -3 480 -61 523 -36 27 -33 31 34 52 76 24 85
25 465 23 345 -2 357 -3 415 -25z m-924 -90 l29 -29 0 -532 0 -532 -29 -29
c-39 -38 -87 -39 -130 -3 l-31 26 0 530 0 530 37 34 c47 43 84 45 124 5z
m1092 -21 l27 -30 0 -530 0 -529 -23 -26 c-14 -17 -36 -28 -63 -32 -36 -4 -45
-1 -72 23 l-30 29 -6 520 c-6 577 -6 573 56 599 44 19 78 11 111 -24z m-1267
-1107 c29 -40 87 -67 128 -59 43 8 85 41 101 79 l12 29 7 -52 c6 -42 14 -60
41 -87 18 -18 43 -33 55 -33 17 0 20 -4 14 -17 -31 -71 -6 -143 59 -174 l42
-20 -97 5 c-211 12 -355 111 -431 296 -21 53 -22 67 -25 459 -3 422 0 460 41
554 l22 52 5 -502 c5 -487 6 -502 26 -530z m1377 941 c21 -57 22 -73 25 -449
2 -268 0 -409 -8 -450 -16 -83 -55 -161 -109 -219 -95 -101 -188 -143 -339
-152 l-97 -5 42 21 c64 33 90 103 59 163 l-15 27 40 0 c39 0 99 23 99 38 0 4
7 15 15 26 13 17 15 17 37 2 28 -20 100 -21 137 -2 15 8 37 28 47 43 18 26 19
56 22 532 2 327 6 501 12 495 6 -6 20 -37 33 -70z m-338 -289 c25 -24 25 -26
25 -203 l0 -180 -37 14 c-29 10 -115 13 -353 13 -238 0 -324 -3 -352 -13 l-38
-14 0 180 c0 177 0 179 25 203 l24 25 341 0 341 0 24 -25z m0 -420 c17 -16 25
-35 25 -59 0 -95 -5 -96 -395 -96 l-327 0 -29 29 c-38 38 -40 91 -4 126 l24
25 341 0 341 0 24 -25z m-788 -162 c-3 -10 -5 -2 -5 17 0 19 2 27 5 18 2 -10
2 -26 0 -35z m423 -18 c195 0 363 4 373 9 15 7 17 2 17 -42 0 -111 8 -108
-400 -106 l-335 3 -22 26 c-17 20 -23 39 -23 77 0 44 2 49 18 42 9 -5 177 -9
372 -9z m230 -195 c12 -12 20 -33 20 -54 0 -88 -19 -95 -264 -95 -112 0 -209
4 -226 11 -59 20 -74 94 -30 138 19 19 34 20 250 20 217 0 231 -1 250 -20z"/>
        <path d="M834 3441 c-17 -10 -36 -32 -42 -47 -7 -19 -15 -202 -22 -511 -9
-430 -9 -486 5 -513 33 -64 121 -77 176 -24 l27 26 16 -30 c8 -16 28 -34 43
-41 21 -8 181 -11 597 -9 l568 3 22 26 22 26 34 -19 c60 -32 114 -18 151 38
14 21 19 24 19 11 0 -23 26 -63 48 -74 9 -4 98 -10 197 -13 l180 -6 -247 -2
-246 -2 -30 -25 -30 -25 -38 25 -37 25 -704 0 -703 0 -38 -34 c-35 -33 -37
-38 -37 -96 0 -58 2 -63 37 -96 l38 -34 703 0 704 0 37 25 38 25 30 -25 30
-25 699 0 c763 0 736 -2 774 57 40 60 16 156 -46 189 -22 11 -81 14 -271 16
l-243 2 188 5 189 6 23 27 24 28 36 -21 c47 -28 100 -21 136 19 30 33 29 17
45 758 l6 281 -30 34 c-27 30 -36 34 -82 34 -45 0 -55 -4 -78 -30 l-26 -30
-32 33 -32 32 -577 0 -577 0 -29 -30 c-24 -23 -31 -26 -36 -14 -8 20 -56 44
-90 44 -31 0 -93 -34 -93 -51 0 -6 -16 3 -35 20 l-36 31 -574 0 -574 0 -28
-24 -28 -24 -28 24 c-35 29 -80 31 -123 5z m118 -52 c17 -23 17 -48 7 -504 -9
-435 -12 -482 -28 -505 -24 -34 -82 -39 -110 -11 -20 20 -21 32 -20 199 1 427
15 810 29 827 33 40 91 37 122 -6z m1242 20 l26 -20 0 -513 c0 -509 0 -513
-21 -532 -20 -18 -46 -19 -570 -22 -582 -2 -596 -1 -613 43 -3 9 -6 241 -6
516 l0 500 25 24 24 25 554 0 c546 0 555 0 581 -21z m1470 0 l26 -20 0 -513
c0 -509 0 -513 -21 -532 -20 -18 -46 -19 -570 -22 -582 -2 -596 -1 -613 43 -3
9 -6 241 -6 516 l0 500 25 24 24 25 554 0 c546 0 555 0 581 -21z m219 -9 c11
-10 19 -33 20 -56 3 -70 -14 -905 -19 -932 -8 -41 -32 -62 -74 -62 -43 0 -70
24 -73 66 -1 16 2 236 6 489 9 492 9 495 60 515 27 11 56 4 80 -20z m-1472 -1
c21 -21 21 -25 15 -328 -12 -609 -16 -681 -37 -702 -27 -27 -83 -25 -109 4
-21 22 -21 26 -16 352 11 569 15 654 37 676 26 26 83 25 110 -2z m-1035 -1178
c-35 -37 -44 -96 -22 -140 l17 -32 -260 3 -261 3 -27 28 c-49 48 -32 131 32
158 11 4 139 8 284 8 l265 1 -28 -29z m874 14 c35 -18 50 -43 50 -85 0 -83
-38 -100 -225 -100 l-146 0 17 32 c22 43 13 102 -22 139 l-28 29 163 0 c125 0
169 -3 191 -15z m546 -7 c-31 -44 -12 -142 31 -167 13 -7 -48 -10 -204 -11
l-221 0 -31 26 c-27 22 -31 32 -31 74 0 42 4 52 31 74 l31 26 204 0 205 0 -15
-22z m497 13 c21 -5 45 -18 52 -28 21 -27 18 -77 -6 -107 l-20 -26 -230 0
c-215 0 -230 1 -249 20 -43 43 -34 110 20 137 30 15 373 18 433 4z m497 -6
c35 -18 50 -43 50 -85 0 -42 -15 -67 -50 -85 -23 -12 -71 -15 -240 -15 l-212
0 26 30 c34 41 42 90 22 131 -9 18 -16 34 -16 36 0 1 88 3 195 3 155 0 202 -3
225 -15z m-1893 -37 c11 -13 23 -31 26 -41 10 -28 -19 -86 -48 -97 -34 -13
-416 -13 -449 0 -31 12 -59 63 -50 93 3 12 16 32 27 45 20 22 25 22 247 22
222 0 227 0 247 -22z"/>
        <path d="M932 1894 c-49 -34 -50 -39 -57 -539 l-8 -470 27 -26 c15 -15 38 -29
52 -32 38 -7 92 11 104 34 10 18 13 18 44 -16 18 -19 42 -36 52 -37 11 -1 -30
-4 -91 -7 -129 -7 -166 -25 -186 -91 -15 -50 -5 -86 36 -127 l33 -33 670 0
671 0 28 24 28 24 28 -24 29 -24 669 0 669 0 36 33 c44 40 54 94 27 147 -25
48 -73 70 -153 70 -64 1 -64 1 -34 14 18 8 37 22 42 32 8 15 13 16 25 6 29
-25 77 -32 112 -17 64 26 63 15 74 522 6 278 7 472 2 487 -14 36 -59 66 -98
66 -26 0 -43 -8 -66 -32 l-32 -33 -32 33 -31 32 -542 0 -542 0 -26 -28 -25
-28 -23 23 c-42 42 -106 42 -148 -1 l-23 -22 -32 28 -31 28 -539 0 -538 0 -29
-26 c-17 -16 -30 -22 -32 -15 -6 17 -57 41 -89 41 -16 0 -39 -7 -51 -16z
m1282 -35 l26 -20 0 -480 c0 -466 -1 -480 -20 -499 -19 -19 -33 -20 -549 -20
l-530 0 -20 26 c-20 26 -21 35 -18 501 l2 475 24 19 c22 18 46 19 541 19 508
0 518 0 544 -21z m1390 0 l26 -20 0 -480 c0 -466 -1 -480 -20 -499 -19 -19
-33 -20 -549 -20 l-530 0 -21 27 c-20 26 -21 32 -18 501 l3 474 24 19 c22 18
46 19 541 19 508 0 518 0 544 -21z m-2568 -3 c18 -14 19 -27 17 -223 -2 -114
-6 -327 -9 -472 -6 -240 -8 -265 -25 -282 -26 -26 -71 -24 -97 4 l-22 23 9
463 c9 414 12 465 27 482 20 23 72 25 100 5z m1389 -8 c14 -20 15 -59 10 -313
-11 -560 -15 -635 -37 -657 -26 -26 -75 -21 -99 12 -18 24 -18 45 -8 480 11
511 10 500 79 500 29 0 43 -6 55 -22z m1390 2 c17 -18 17 -46 10 -472 -5 -309
-11 -461 -18 -478 -17 -35 -61 -49 -95 -29 l-27 15 0 244 c0 135 2 345 3 467
3 204 5 224 23 248 25 31 77 34 104 5z m-1295 -1032 l35 -18 -62 0 c-68 0
-108 -12 -139 -41 -19 -18 -22 -18 -34 -4 -21 25 -66 45 -102 45 l-33 1 31 13
c18 8 37 22 42 32 10 18 11 18 30 1 42 -38 141 -16 157 33 6 20 8 19 23 -12
10 -18 33 -41 52 -50z m-1154 -77 c-26 -28 -31 -91 -12 -129 l17 -32 -205 0
-204 0 -31 26 c-41 34 -44 92 -6 129 l24 25 217 0 c214 0 217 0 200 -19z m924
-5 c34 -38 33 -101 -3 -132 -27 -23 -33 -24 -193 -24 l-165 0 17 32 c19 38 14
101 -12 129 -17 19 -14 19 158 19 172 0 175 0 198 -24z m494 7 c-5 -10 -9 -39
-9 -65 0 -36 6 -53 24 -72 l24 -26 -205 0 c-193 0 -207 1 -232 21 -35 27 -37
101 -4 136 21 23 26 23 216 23 181 0 194 -1 186 -17z m515 -9 c35 -45 24 -96
-26 -122 -31 -17 -389 -16 -423 1 -35 18 -50 52 -39 91 16 54 24 56 255 56
l213 0 20 -26z m446 1 c38 -37 35 -95 -6 -129 l-31 -26 -205 0 -206 0 26 25
c30 31 38 73 21 120 l-12 35 195 0 c193 0 194 0 218 -25z m-1845 -10 c44 -47
19 -129 -42 -140 -18 -4 -124 -5 -235 -3 -193 3 -204 4 -224 25 -30 30 -30 85
1 118 l23 25 227 0 227 0 23 -25z"/>
    </g>
</svg>
