<?xml version="1.0" standalone="no"?>
<!DOCTYPE svg PUBLIC "-//W3C//DTD SVG 20010904//EN"
 "http://www.w3.org/TR/2001/REC-SVG-20010904/DTD/svg10.dtd">
<svg version="1.0" xmlns="http://www.w3.org/2000/svg"
 width="478.000000pt" height="554.000000pt" viewBox="0 0 478.000000 554.000000"
 preserveAspectRatio="xMidYMid meet">

    <g transform="translate(0.000000,554.000000) scale(0.100000,-0.100000)"
    >
        <path d="M1445 5524 c-319 -58 -588 -316 -665 -637 -18 -76 -20 -119 -20 -566
l0 -484 -42 46 c-54 57 -108 75 -170 58 -34 -10 -88 -51 -238 -183 -107 -93
-204 -184 -215 -201 -13 -20 -19 -48 -19 -83 0 -94 78 -174 171 -174 23 0 52
4 65 9 25 10 390 326 425 369 l23 27 2 -1510 3 -1510 24 -70 c97 -288 291
-481 576 -576 l70 -23 910 -4 c893 -3 912 -3 1001 18 330 76 588 352 644 690
7 45 10 682 8 2095 l-3 2030 -23 75 c-90 289 -297 496 -589 587 l-88 28 -885
2 c-737 1 -898 -1 -965 -13z m1864 -39 c163 -31 285 -98 417 -230 123 -122
197 -264 223 -425 7 -44 11 -716 11 -2062 0 -2162 2 -2070 -53 -2208 -94 -231
-302 -420 -538 -487 -60 -17 -127 -18 -994 -18 l-930 0 -75 23 c-139 43 -274
132 -367 239 -67 77 -128 173 -153 241 -52 139 -50 41 -50 2220 0 2211 -3
2076 57 2222 104 254 362 456 628 493 17 2 415 5 886 6 733 1 868 -1 938 -14z
m-2648 -1598 c52 -32 77 -124 48 -180 -14 -25 -361 -337 -398 -357 -28 -15
-97 -12 -130 5 -40 20 -75 94 -66 137 4 18 13 43 21 55 19 30 369 335 402 351
30 13 92 8 123 -11z"/>
        <path d="M1715 4507 c-195 -65 -316 -240 -303 -440 l5 -74 -36 -19 c-19 -10
-67 -44 -106 -75 -156 -123 -269 -300 -315 -491 -19 -81 -20 -119 -20 -1273 0
-1161 1 -1192 20 -1275 38 -159 149 -345 269 -453 67 -60 181 -131 267 -165
157 -63 143 -62 889 -62 637 0 685 1 760 19 187 45 320 124 453 266 118 127
188 261 223 430 18 85 19 156 19 1240 0 1082 -1 1155 -19 1240 -60 289 -259
532 -531 648 -149 63 -184 67 -623 67 l-393 0 -11 70 c-22 142 -111 262 -240
323 -60 28 -80 32 -168 34 -63 2 -115 -2 -140 -10z m287 -59 c138 -64 228
-201 228 -348 0 -346 -410 -524 -658 -287 -162 155 -163 410 -5 559 90 84 156
108 283 105 79 -2 105 -7 152 -29z m1163 -422 c94 -27 254 -111 321 -168 166
-143 270 -324 304 -530 14 -88 14 -2300 -1 -2388 -44 -275 -222 -513 -472
-635 -173 -83 -126 -79 -897 -83 -582 -2 -696 0 -760 12 -171 35 -306 109
-435 240 -149 151 -225 313 -245 528 -8 76 -10 474 -8 1213 4 1094 4 1100 26
1182 43 164 123 303 239 414 62 61 171 140 190 139 4 -1 19 -24 32 -53 32 -68
122 -155 197 -192 50 -24 74 -29 162 -33 89 -4 112 -1 165 18 153 56 244 164
281 333 l7 28 417 -4 c357 -3 426 -6 477 -21z"/>
        <path d="M1730 4422 c-150 -55 -230 -170 -230 -327 0 -138 61 -240 182 -306
59 -32 69 -34 158 -34 84 0 101 3 148 28 124 65 185 158 191 294 4 98 -14 161
-65 227 -88 116 -253 166 -384 118z m243 -42 c56 -28 122 -91 148 -142 25 -49
38 -137 28 -197 -23 -149 -156 -261 -309 -261 -154 0 -285 112 -310 264 -9 59
3 144 30 196 34 66 120 137 191 159 56 17 169 7 222 -19z"/>
        <path
                 d="M1399 3567 c-69 -45 -69 -48 -69 -470 0 -422 1 -426 66 -471 l39 -26
390 0 c372 0 392 1 423 20 18 11 41 34 52 52 19 31 20 51 20 423 0 372 -1 392
-20 423 -11 18 -34 41 -52 52 -31 19 -51 20 -424 20 -390 0 -391 0 -425 -23z
m857 -29 c22 -21 38 -48 44 -73 5 -22 10 -188 10 -370 0 -181 -5 -348 -10
-370 -6 -25 -22 -52 -44 -72 l-36 -33 -115 0 c-111 0 -115 1 -105 19 13 25 13
67 0 92 -10 17 -7 19 28 19 25 0 49 8 66 21 l26 20 0 -40 c0 -52 27 -81 75
-81 22 0 43 8 55 20 19 19 20 33 20 408 0 372 -1 390 -19 406 -12 11 -36 18
-57 18 -47 0 -74 -29 -74 -79 l0 -34 -26 20 c-25 20 -39 21 -272 21 -234 0
-247 -1 -267 -20 l-22 -21 -6 42 c-7 54 -24 70 -77 71 -34 0 -48 -5 -62 -22
-17 -21 -18 -51 -18 -400 0 -367 1 -378 21 -404 16 -20 29 -26 59 -26 48 0 80
35 80 88 l0 35 23 -21 c14 -13 36 -22 55 -22 29 0 32 -2 22 -19 -14 -27 -13
-84 2 -99 9 -9 -11 -12 -94 -12 -92 0 -109 3 -132 21 -56 44 -56 46 -56 454 0
408 0 410 56 454 26 20 36 21 420 21 l394 0 36 -32z"/>
        <path d="M2530 3571 c-19 -10 -45 -36 -57 -57 -22 -38 -23 -44 -23 -419 0
-379 0 -380 23 -418 48 -79 34 -77 470 -77 409 0 408 0 459 48 45 42 50 91 46
484 -3 343 -4 358 -24 385 -11 15 -36 38 -54 51 -33 22 -35 22 -419 22 -357 0
-389 -1 -421 -19z m831 -18 c16 -10 38 -36 49 -58 19 -39 20 -63 20 -400 0
-337 -1 -361 -20 -400 -31 -64 -59 -75 -191 -75 -88 0 -110 3 -101 12 16 16
16 90 0 106 -9 9 -2 12 32 12 31 0 50 6 67 22 l23 21 0 -38 c0 -52 31 -85 80
-85 25 0 43 7 56 21 18 20 19 44 22 392 3 391 0 420 -42 433 -67 22 -116 -10
-116 -74 l0 -35 -23 21 c-23 21 -30 22 -269 22 -233 0 -247 -1 -272 -21 l-26
-20 0 34 c0 51 -27 79 -75 79 -30 0 -45 -6 -62 -27 l-23 -26 0 -375 0 -375 25
-24 c52 -53 135 -18 135 57 l0 39 26 -20 c15 -12 40 -21 56 -21 25 0 27 -2 18
-19 -13 -25 -13 -67 1 -93 10 -19 9 -20 -99 -16 -101 3 -113 5 -136 27 -15 14
-31 41 -37 60 -6 23 -9 170 -7 408 3 359 4 373 24 400 39 53 40 53 452 53 346
0 387 -2 413 -17z"/>
        <path d="M1406 2487 c-76 -43 -76 -43 -76 -472 0 -424 0 -427 69 -472 34 -23
35 -23 429 -23 l395 0 34 26 c64 48 63 43 63 472 0 539 47 492 -495 492 -375
0 -381 -1 -419 -23z m835 -20 c64 -43 64 -42 64 -457 0 -356 -1 -377 -20 -408
-32 -54 -85 -72 -205 -72 -99 0 -102 1 -87 18 19 21 23 82 6 99 -7 7 2 12 31
16 24 3 53 15 66 28 l24 22 0 -39 c0 -58 22 -84 72 -84 81 0 78 -18 78 423 0
439 2 427 -72 427 -51 0 -78 -27 -78 -80 l0 -39 -25 24 -24 25 -244 0 c-232 0
-246 -1 -271 -21 l-26 -20 0 29 c0 16 -9 41 -21 56 -27 34 -88 37 -119 4 -19
-21 -20 -33 -20 -403 0 -370 1 -382 20 -403 15 -15 33 -22 60 -22 48 0 80 35
80 88 l0 35 23 -21 c13 -12 38 -25 56 -28 23 -5 29 -10 22 -17 -17 -17 -13
-78 6 -99 15 -17 13 -18 -78 -18 -109 0 -151 15 -186 69 -23 34 -23 36 -23
413 0 418 0 420 63 458 30 19 53 20 413 20 380 0 381 0 415 -23z"/>
        <path d="M2527 2488 c-22 -13 -45 -38 -57 -63 -19 -39 -20 -62 -20 -416 1
-417 2 -421 69 -466 l34 -23 400 0 400 0 42 43 c56 55 57 66 53 492 -3 319 -4
342 -23 374 -11 19 -33 43 -48 55 -28 20 -40 21 -420 23 -388 3 -392 3 -430
-19z m834 -21 c68 -45 69 -51 69 -449 0 -397 -3 -417 -64 -461 -27 -19 -46
-22 -151 -26 -118 -3 -120 -3 -102 16 19 22 23 83 6 100 -7 7 2 12 31 16 24 3
53 15 66 28 l24 22 0 -41 c0 -55 26 -82 78 -82 27 0 45 7 58 21 18 20 19 41
19 404 0 363 -1 384 -19 404 -13 14 -31 21 -58 21 -49 0 -78 -28 -78 -76 l0
-35 -26 20 c-25 20 -39 21 -271 21 l-244 0 -24 -25 -25 -24 0 38 c0 51 -29 81
-80 81 -30 0 -43 -6 -59 -26 -20 -26 -21 -37 -21 -399 0 -362 1 -373 21 -399
16 -20 29 -26 60 -26 53 0 79 27 79 82 l0 41 23 -21 c13 -12 38 -25 56 -28 23
-5 29 -10 22 -17 -17 -17 -13 -78 7 -100 17 -19 15 -19 -89 -15 -117 4 -145
15 -179 71 -19 30 -20 53 -20 407 0 345 1 378 18 410 37 69 42 70 463 70 374
0 376 0 410 -23z"/>
        <path d="M1430 1419 c-14 -6 -36 -20 -48 -32 -52 -48 -52 -49 -52 -460 0 -382
0 -384 23 -417 12 -18 35 -43 50 -54 28 -20 41 -21 409 -24 366 -3 382 -2 422
18 84 41 81 24 84 468 3 386 2 394 -19 431 -12 21 -38 48 -59 60 -37 20 -49
21 -411 20 -224 0 -384 -4 -399 -10z m800 -27 c19 -9 43 -33 55 -52 19 -34 20
-51 20 -410 0 -359 -1 -376 -20 -410 -33 -56 -73 -70 -199 -70 -105 0 -108 1
-93 18 19 21 22 64 7 93 -10 17 -7 19 24 19 22 0 45 9 65 26 l31 26 0 -40 c0
-55 27 -86 73 -86 21 0 45 8 57 19 20 18 20 28 20 411 l0 393 -22 15 c-31 22
-84 20 -108 -4 -14 -14 -20 -34 -20 -62 -1 -36 -3 -40 -13 -27 -27 36 -52 39
-290 39 -222 0 -236 -1 -261 -21 l-26 -20 0 31 c0 41 -39 80 -80 80 -19 0 -40
-9 -55 -25 l-25 -24 0 -379 c0 -352 1 -381 18 -402 14 -17 29 -23 61 -23 53 0
70 17 80 79 5 27 9 43 10 37 1 -16 53 -43 83 -43 17 0 19 -3 10 -12 -17 -17
-15 -84 4 -102 14 -15 7 -16 -81 -16 -112 0 -154 15 -185 65 -19 31 -20 49
-20 415 0 366 1 384 20 415 39 64 45 65 455 65 333 0 373 -2 405 -18z"/>
        <path d="M2545 1416 c-41 -18 -83 -69 -90 -109 -3 -18 -5 -199 -3 -404 3 -359
4 -373 24 -400 11 -15 36 -38 54 -50 33 -23 35 -23 409 -23 371 0 377 0 421
22 26 14 53 37 65 58 19 33 20 52 20 420 l0 385 -24 38 c-12 21 -40 46 -62 57
-36 19 -59 20 -411 20 -287 -1 -380 -4 -403 -14z m804 -24 c19 -9 44 -30 55
-45 20 -28 21 -40 21 -417 0 -377 -1 -389 -21 -417 -36 -49 -77 -63 -192 -63
-98 0 -102 1 -92 19 14 27 13 84 -2 99 -9 9 -5 12 20 12 37 0 87 23 95 42 3 7
6 -4 6 -25 1 -21 6 -47 12 -58 26 -49 117 -43 138 9 8 20 11 139 9 401 l-3
373 -24 19 c-54 44 -131 8 -131 -62 l0 -38 -26 24 -27 25 -234 0 c-238 0 -263
-3 -290 -39 -10 -14 -12 -10 -13 20 0 54 -32 89 -80 89 -30 0 -43 -6 -59 -26
-20 -26 -21 -38 -21 -395 0 -252 4 -376 11 -393 23 -50 103 -57 134 -13 8 12
15 39 15 60 l0 39 31 -26 c17 -14 42 -26 55 -26 21 0 23 -3 14 -19 -15 -30
-12 -72 7 -94 18 -19 16 -19 -94 -15 -103 3 -114 5 -138 28 -55 52 -55 49 -55
450 0 397 0 400 52 446 12 12 30 24 38 27 8 3 182 6 385 6 333 1 373 -1 404
-17z"/>
        <path d="M4127 3935 c-77 -27 -117 -84 -117 -168 0 -40 6 -62 23 -85 26 -38
401 -350 435 -363 38 -15 105 -10 139 9 18 9 46 34 62 56 26 32 31 48 31 92 0
29 -7 68 -16 86 -19 40 -397 357 -446 375 -43 15 -65 15 -111 -2z m143 -60
c19 -13 111 -88 205 -167 132 -111 172 -151 181 -178 17 -53 6 -97 -36 -141
-33 -35 -42 -39 -84 -39 -26 0 -57 5 -69 11 -37 20 -391 320 -404 343 -19 33
-16 104 7 140 18 29 39 46 80 60 27 9 84 -5 120 -29z"/>
    </g>

    <g transform="translate(0.000000,554.000000) scale(0.100000,-0.100000)"
>
<path d="M1445 5524 c-319 -58 -588 -316 -665 -637 -18 -76 -20 -119 -20 -571
l0 -489 -35 46 c-54 70 -123 91 -205 59 -34 -14 -400 -336 -425 -375 -13 -20
-19 -48 -19 -83 0 -125 131 -210 247 -160 43 18 413 348 424 378 4 13 10 -658
13 -1492 l5 -1515 24 -70 c87 -259 263 -452 495 -545 151 -61 128 -60 1097
-60 l886 0 95 24 c325 83 573 353 628 686 7 45 10 682 8 2095 l-3 2030 -23 75
c-90 289 -297 496 -589 587 l-88 28 -885 2 c-737 1 -898 -1 -965 -13z m1864
-39 c163 -31 285 -98 417 -230 123 -122 197 -264 223 -425 7 -44 11 -717 11
-2067 0 -2175 3 -2064 -54 -2205 -93 -229 -302 -418 -537 -485 -60 -17 -127
-18 -994 -18 l-930 0 -75 23 c-139 43 -274 132 -367 239 -67 77 -128 173 -153
241 -52 139 -50 41 -50 2220 0 2211 -3 2076 57 2222 104 254 362 456 628 493
17 2 415 5 886 6 733 1 868 -1 938 -14z m-2646 -1600 c55 -39 75 -132 39 -187
-18 -28 -358 -330 -391 -348 -28 -15 -97 -12 -130 5 -40 20 -75 94 -66 137 4
18 13 43 21 55 19 30 369 335 402 351 31 14 95 8 125 -13z"/>
<path d="M1715 4507 c-195 -65 -316 -240 -303 -440 l5 -74 -36 -19 c-19 -10
-67 -44 -106 -75 -156 -123 -269 -300 -315 -491 -19 -81 -20 -119 -20 -1273 0
-1161 1 -1192 20 -1275 38 -159 149 -345 269 -453 67 -60 181 -131 267 -165
157 -63 143 -62 889 -62 637 0 685 1 760 19 187 45 320 124 453 266 118 127
188 261 223 430 18 85 19 156 19 1240 0 1082 -1 1155 -19 1240 -71 347 -350
628 -693 700 -54 12 -156 15 -461 15 l-393 0 -11 70 c-22 142 -107 256 -237
320 -64 32 -79 35 -170 37 -64 2 -116 -2 -141 -10z m287 -59 c138 -64 228
-201 228 -348 0 -346 -410 -524 -658 -287 -162 155 -163 410 -5 559 90 84 156
108 283 105 79 -2 105 -7 152 -29z m1163 -422 c94 -27 254 -111 321 -168 166
-143 270 -324 304 -530 14 -88 14 -2300 -1 -2388 -44 -275 -222 -513 -472
-635 -173 -83 -126 -79 -897 -83 -582 -2 -696 0 -760 12 -171 35 -306 109
-435 240 -149 151 -225 313 -245 528 -8 76 -10 474 -8 1213 4 1094 4 1100 26
1182 43 164 123 303 239 414 62 60 170 139 190 139 4 0 17 -21 27 -47 26 -63
125 -161 201 -197 51 -25 75 -30 163 -34 89 -4 112 -1 165 18 153 56 244 164
281 333 l7 28 417 -4 c357 -3 426 -6 477 -21z"/>
<path d="M1730 4422 c-150 -55 -230 -170 -230 -327 0 -98 27 -168 88 -234 174
-186 483 -127 573 109 26 67 26 183 0 250 -64 169 -265 263 -431 202z m243
-42 c56 -28 122 -91 148 -142 25 -49 38 -137 28 -197 -23 -149 -156 -261 -309
-261 -154 0 -285 112 -310 264 -9 59 3 144 30 196 34 66 120 137 191 159 56
17 169 7 222 -19z"/>
<path d="M1457 3591 c-49 -10 -88 -39 -109 -82 -16 -31 -18 -72 -18 -412 0
-417 1 -425 61 -468 l34 -24 395 -3 c380 -2 396 -2 428 18 18 11 41 34 52 52
19 31 20 51 20 424 0 389 0 391 -23 424 -12 19 -38 43 -57 54 -33 20 -52 21
-390 23 -195 1 -372 -2 -393 -6z m799 -54 c26 -23 38 -45 45 -77 11 -58 11
-672 0 -730 -7 -32 -19 -54 -45 -77 l-36 -33 -115 0 c-111 0 -115 1 -105 19
13 25 13 78 0 86 -22 13 -8 25 29 25 24 0 48 8 65 21 l26 20 0 -37 c0 -73 81
-113 130 -64 19 19 20 33 20 407 0 438 3 423 -76 423 -50 0 -74 -25 -74 -78
l0 -33 -26 20 c-25 20 -39 21 -269 21 -230 0 -244 -1 -269 -21 l-26 -20 0 26
c0 28 -16 66 -34 77 -6 4 -27 8 -46 8 -80 0 -80 -2 -80 -428 0 -358 1 -370 21
-396 16 -20 29 -26 59 -26 48 0 80 35 80 87 l0 34 26 -20 c15 -12 40 -21 56
-21 25 0 27 -2 18 -19 -13 -25 -13 -67 0 -92 10 -18 6 -19 -93 -19 -91 0 -108
3 -131 21 -56 44 -56 46 -56 454 0 408 0 410 56 454 26 20 36 21 420 21 l394
0 36 -33z m-783 -38 c12 -7 25 -17 29 -23 4 -6 8 -177 8 -380 0 -330 -2 -371
-17 -388 -20 -22 -61 -23 -85 -1 -17 15 -18 40 -18 388 0 404 -1 400 58 414 2
1 13 -4 25 -10z m758 -8 l24 -19 0 -377 c0 -361 -1 -377 -19 -391 -26 -18 -61
-18 -80 2 -14 13 -16 63 -16 394 l0 379 22 15 c29 21 41 20 69 -3z m-145 -82
c17 -19 19 -41 22 -236 3 -211 3 -214 -17 -204 -12 7 -110 11 -263 11 -204 0
-247 -3 -266 -16 l-22 -15 0 214 c0 202 1 216 21 241 l20 26 243 0 c234 0 244
-1 262 -21z m-4 -461 c24 -20 28 -45 10 -68 -17 -20 -24 -20 -272 -18 l-255 3
-9 27 c-8 22 -6 32 9 48 17 19 30 20 260 20 178 0 245 -3 257 -12z m-257 -108
c195 0 264 3 274 13 11 10 12 7 7 -18 -14 -63 -23 -65 -283 -65 l-234 0 -24
25 c-14 13 -25 34 -25 47 0 17 3 19 12 10 9 -9 83 -12 273 -12z m149 -116 c19
-18 21 -65 4 -82 -17 -17 -309 -17 -326 0 -18 18 -15 75 6 87 9 6 81 11 159
11 116 0 144 -3 157 -16z"/>
<path d="M2565 3587 c-56 -23 -75 -38 -95 -77 -19 -37 -20 -59 -20 -415 0
-354 1 -378 20 -414 11 -22 35 -48 53 -60 33 -20 46 -21 423 -21 371 0 391 1
422 20 18 11 41 34 52 52 19 31 20 51 20 430 l0 396 -26 32 c-56 65 -51 65
-454 67 -265 2 -373 -1 -395 -10z m796 -34 c16 -10 38 -36 49 -58 19 -39 20
-63 20 -400 0 -337 -1 -361 -20 -400 -31 -64 -59 -75 -191 -75 -88 0 -110 3
-101 12 15 15 16 72 2 99 -10 17 -7 19 28 19 25 0 49 8 66 21 l26 20 0 -34 c0
-74 75 -113 131 -68 l24 19 0 385 c0 364 -1 386 -19 406 -14 15 -31 21 -62 21
-50 0 -74 -25 -74 -78 l0 -33 -26 20 c-25 20 -39 21 -271 21 l-244 0 -24 -25
-25 -24 0 37 c0 57 -22 82 -75 82 -35 0 -48 -5 -65 -27 -20 -26 -21 -33 -18
-406 l3 -379 24 -19 c57 -47 131 -6 131 72 l0 38 25 -24 c17 -18 35 -25 61
-25 35 0 36 -1 21 -18 -19 -21 -22 -64 -6 -94 10 -19 9 -20 -99 -16 -101 3
-113 5 -136 27 -15 14 -31 41 -37 60 -6 23 -9 170 -7 408 3 359 4 373 24 400
39 53 40 53 452 53 346 0 387 -2 413 -17z m-743 -71 c9 -12 12 -105 12 -386 0
-407 0 -406 -61 -406 -58 0 -59 7 -59 411 l0 368 27 20 c28 23 59 20 81 -7z
m737 3 l25 -24 0 -366 c0 -352 -1 -366 -20 -385 -24 -24 -57 -26 -82 -3 -17
15 -18 40 -18 388 0 382 1 394 40 408 26 9 30 8 55 -18z m-146 -81 c20 -25 21
-39 21 -236 0 -203 -1 -208 -19 -198 -12 6 -114 10 -263 10 -207 0 -247 -2
-266 -16 l-23 -16 3 220 c3 200 5 222 22 241 18 20 28 21 262 21 l243 0 20
-26z m1 -464 c23 -23 24 -33 10 -61 -10 -18 -24 -19 -270 -19 -246 0 -260 1
-270 19 -14 28 -13 38 10 61 19 19 33 20 260 20 227 0 241 -1 260 -20z m-249
-98 c290 3 294 2 244 -47 l-24 -25 -234 0 c-263 0 -271 2 -284 70 -6 34 -6 34
11 17 17 -16 40 -18 287 -15z m130 -112 c22 -12 27 -68 7 -88 -15 -15 -291
-17 -319 -2 -23 13 -26 62 -3 84 13 13 41 16 155 16 78 0 149 -5 160 -10z"/>
<path d="M1406 2487 c-76 -43 -76 -43 -76 -472 0 -424 0 -427 69 -472 34 -23
35 -23 429 -23 l395 0 34 26 c64 48 63 43 63 472 0 539 47 492 -495 492 -375
0 -381 -1 -419 -23z m835 -20 c64 -43 64 -42 64 -457 0 -356 -1 -377 -20 -408
-32 -53 -85 -72 -204 -72 l-102 0 15 22 c9 12 16 34 16 48 0 14 -7 36 -16 48
-15 22 -15 22 32 22 35 0 54 6 71 22 l23 21 0 -41 c0 -29 6 -48 20 -62 24 -24
77 -26 108 -4 l22 15 0 394 0 394 -22 15 c-12 9 -37 16 -55 16 -46 0 -73 -30
-73 -80 l0 -39 -26 24 -27 25 -244 0 -244 0 -24 -25 -25 -24 0 33 c0 51 -33
86 -80 86 -30 0 -43 -6 -59 -26 -20 -26 -21 -37 -21 -399 0 -362 1 -373 21
-399 16 -20 29 -26 59 -26 48 0 80 35 80 88 l0 35 23 -21 c16 -15 36 -22 62
-22 36 0 37 -1 22 -18 -10 -10 -17 -34 -17 -52 0 -18 7 -42 17 -52 15 -17 13
-18 -78 -18 -109 0 -151 15 -186 69 -23 34 -23 36 -23 413 0 418 0 420 63 458
30 19 53 20 413 20 380 0 381 0 415 -23z m-749 -64 c17 -15 18 -40 18 -386 0
-331 -2 -372 -17 -389 -20 -22 -61 -23 -85 -1 -17 15 -18 40 -18 386 0 331 2
372 17 389 20 22 61 23 85 1z m755 -13 c18 -36 18 -714 0 -750 -14 -28 -54
-38 -87 -20 -20 10 -20 18 -20 390 0 336 2 380 16 395 25 24 76 16 91 -15z
m-162 -65 c25 -24 25 -25 25 -232 l0 -208 -271 3 c-196 2 -275 0 -285 -9 -12
-10 -14 20 -14 205 l0 217 25 24 24 25 236 0 236 0 24 -25z m6 -462 c18 -18
14 -65 -7 -80 -14 -10 -74 -13 -258 -13 -209 0 -242 2 -258 17 -25 22 -23 59
5 78 19 14 56 15 264 13 169 -2 246 -7 254 -15z m-252 -101 c205 2 271 0 271
-9 0 -7 -11 -25 -24 -40 l-24 -28 -235 0 c-235 0 -235 0 -261 24 -28 26 -39
84 -12 62 10 -8 91 -11 285 -9z m129 -118 c14 -10 22 -26 22 -44 0 -51 -27
-60 -175 -60 -148 0 -175 9 -175 60 0 51 27 60 175 60 102 0 135 -3 153 -16z"/>
<path d="M2533 2489 c-30 -15 -48 -33 -62 -63 -20 -40 -21 -60 -21 -417 0
-417 1 -421 69 -466 34 -23 35 -23 434 -23 l400 0 43 44 44 43 0 400 c0 399 0
400 -23 434 -45 68 -49 69 -467 69 -360 0 -377 -1 -417 -21z m828 -22 c68 -45
69 -51 69 -449 0 -397 -3 -417 -64 -461 -27 -19 -46 -22 -151 -26 -118 -3
-120 -3 -102 16 18 21 24 88 7 98 -22 14 -8 25 32 25 29 0 49 7 65 22 l23 21
0 -39 c0 -54 28 -84 79 -84 26 0 44 7 57 21 18 20 19 41 19 404 0 363 -1 384
-19 404 -13 14 -31 21 -57 21 -48 0 -79 -30 -79 -78 l0 -33 -26 20 c-25 20
-39 21 -269 21 l-242 0 -27 -25 -26 -24 0 30 c0 32 -16 69 -34 81 -24 17 -77
8 -101 -17 l-25 -24 0 -374 c0 -364 1 -375 21 -401 16 -20 29 -26 59 -26 52 0
80 29 80 84 l0 39 23 -21 c15 -15 36 -22 61 -22 36 0 37 0 22 -22 -21 -29 -20
-67 0 -97 l17 -23 -105 4 c-116 4 -144 15 -178 71 -19 30 -20 53 -20 407 0
344 2 378 18 409 38 70 42 71 463 71 374 0 376 0 410 -23z m-747 -63 c14 -13
16 -63 16 -389 0 -410 1 -405 -60 -405 -59 0 -60 7 -60 405 0 310 2 364 16
383 18 26 65 30 88 6z m750 -6 c14 -19 16 -73 16 -383 0 -398 -1 -405 -60
-405 -61 0 -60 -5 -60 405 0 326 2 376 16 389 23 24 70 20 88 -6z m-159 -73
c25 -24 25 -25 25 -232 l0 -208 -271 3 c-194 2 -275 -1 -285 -9 -12 -10 -14
21 -14 205 l0 217 25 24 24 25 236 0 236 0 24 -25z m11 -469 c19 -27 18 -42
-6 -66 -19 -19 -33 -20 -260 -20 -227 0 -241 1 -260 20 -25 25 -25 45 0 70 20
20 30 21 266 18 230 -3 247 -4 260 -22z m-257 -94 c241 3 271 1 271 -13 0 -8
-12 -26 -26 -40 -26 -24 -26 -24 -261 -24 l-235 0 -24 28 c-26 31 -35 78 -10
58 10 -8 91 -11 285 -9z m129 -118 c14 -10 22 -26 22 -44 0 -51 -27 -60 -175
-60 -148 0 -175 9 -175 60 0 51 27 60 175 60 102 0 135 -3 153 -16z"/>
<path d="M1414 1410 c-25 -13 -49 -35 -62 -59 -22 -38 -22 -47 -22 -423 0
-383 0 -385 23 -418 12 -18 35 -43 50 -54 28 -20 41 -21 411 -24 l382 -3 43
23 c82 44 81 39 81 482 0 374 -1 390 -20 422 -12 18 -40 42 -64 53 -40 20 -59
21 -412 21 -350 0 -371 -1 -410 -20z m816 -18 c19 -9 43 -33 55 -52 19 -34 20
-51 20 -410 0 -359 -1 -376 -20 -410 -33 -56 -73 -70 -199 -70 -105 0 -108 1
-93 18 19 21 22 64 7 91 -8 16 -4 19 31 24 23 3 52 16 65 28 l24 22 0 -40 c0
-56 25 -85 74 -85 21 0 45 7 57 18 18 16 19 34 19 406 0 375 -1 389 -20 408
-26 26 -70 26 -104 -1 -20 -16 -26 -29 -26 -61 l0 -40 -31 26 -31 26 -229 0
c-235 0 -278 -6 -292 -42 -3 -7 -6 4 -6 25 -1 48 -37 87 -81 87 -19 0 -40 -9
-55 -25 l-25 -24 0 -370 c0 -255 4 -378 11 -395 14 -31 54 -45 95 -35 34 10
54 43 54 89 0 30 0 30 19 11 11 -11 36 -23 55 -27 31 -5 34 -9 26 -24 -15 -28
-12 -71 7 -92 15 -17 12 -18 -81 -18 -113 0 -155 14 -186 65 -19 31 -20 49
-20 415 0 366 1 384 20 415 39 64 45 65 455 65 333 0 373 -2 405 -18z m-736
-74 c14 -19 16 -73 16 -388 0 -201 -4 -370 -8 -376 -24 -37 -91 -36 -106 1 -3
9 -6 181 -6 383 0 326 2 367 17 384 23 25 68 23 87 -4z m742 8 c18 -14 19 -31
22 -374 2 -226 -1 -369 -7 -386 -15 -39 -53 -53 -86 -32 l-25 16 0 377 c0 336
2 378 17 395 19 22 52 23 79 4z m-165 -69 c35 -27 39 -54 39 -254 l0 -198
-265 3 c-176 2 -271 -1 -285 -8 -20 -11 -20 -8 -20 205 0 216 0 216 25 240
l24 25 233 0 c167 -1 237 -4 249 -13z m17 -479 c7 -7 12 -24 12 -38 0 -49 -7
-50 -269 -50 -213 0 -247 2 -263 17 -20 18 -23 36 -8 64 10 18 24 19 263 19
184 0 256 -3 265 -12z m-260 -108 c149 0 251 4 263 10 31 17 24 -16 -10 -51
l-29 -29 -222 0 c-149 0 -228 4 -243 12 -30 16 -46 39 -47 66 0 22 1 22 22 8
19 -13 62 -16 266 -16z m150 -112 c17 -17 15 -58 -5 -80 -14 -16 -33 -18 -156
-18 -117 0 -144 3 -159 17 -20 18 -24 63 -6 81 17 17 309 17 326 0z"/>
<path d="M2545 1416 c-41 -18 -83 -69 -90 -109 -3 -18 -5 -199 -3 -404 3 -359
4 -373 24 -400 11 -15 36 -38 54 -50 33 -23 35 -23 409 -23 349 0 379 2 418
20 25 11 51 33 63 52 19 32 20 49 20 428 0 375 -1 397 -20 427 -10 18 -37 41
-59 53 -38 19 -57 20 -413 20 -287 -1 -380 -4 -403 -14z m804 -24 c19 -9 44
-30 55 -45 20 -28 21 -40 21 -415 l0 -387 -24 -34 c-35 -49 -74 -61 -197 -61
-103 0 -106 1 -91 18 20 22 22 83 5 100 -9 9 -6 12 14 12 36 0 80 17 96 37 10
14 12 11 12 -24 0 -56 25 -85 74 -85 26 0 45 7 60 21 21 21 21 27 21 407 l0
386 -24 19 c-54 44 -130 5 -132 -68 0 -21 -3 -32 -6 -25 -14 36 -57 42 -292
42 l-229 0 -31 -26 -31 -26 0 37 c0 71 -74 108 -130 65 l-25 -19 -3 -379 -3
-380 24 -27 c17 -21 32 -27 62 -27 50 0 75 28 75 85 l0 40 23 -21 c13 -12 37
-25 55 -28 27 -5 30 -9 22 -25 -15 -28 -12 -70 7 -92 18 -19 16 -19 -94 -15
-103 3 -114 5 -138 28 -55 52 -55 49 -55 450 0 397 0 400 52 446 12 12 30 24
38 27 8 3 182 6 385 6 333 1 373 -1 404 -17z m-737 -69 c17 -15 18 -40 18
-388 0 -282 -3 -375 -12 -387 -22 -27 -53 -30 -81 -7 l-27 20 0 368 c0 316 2
370 16 389 18 26 60 29 86 5z m752 -5 c14 -19 16 -73 16 -386 l0 -363 -25 -25
c-19 -18 -31 -23 -48 -19 -47 14 -47 17 -47 409 0 330 2 371 17 388 23 25 68
23 87 -4z m-159 -73 c25 -24 25 -25 25 -232 l0 -208 -265 3 c-176 2 -271 -1
-285 -8 -20 -11 -20 -8 -20 195 0 209 4 235 39 262 12 9 82 12 249 13 l233 0
24 -25z m9 -471 c20 -19 20 -34 0 -62 -15 -22 -18 -22 -261 -22 -215 0 -249 2
-265 17 -22 20 -23 46 -2 67 23 24 505 24 528 0z m-266 -104 c149 0 251 4 263
10 15 9 19 7 19 -7 -1 -23 -19 -46 -47 -61 -15 -8 -94 -12 -243 -12 l-222 0
-29 29 c-16 16 -29 39 -29 51 0 20 1 20 22 6 19 -13 62 -16 266 -16z m150
-112 c17 -17 15 -58 -5 -80 -14 -16 -33 -18 -156 -18 -117 0 -144 3 -159 17
-20 18 -24 63 -6 81 17 17 309 17 326 0z"/>
<path d="M4120 3934 c-42 -18 -77 -49 -96 -86 -19 -36 -18 -122 1 -159 18 -34
385 -345 432 -365 43 -18 107 -18 146 1 18 9 47 35 65 59 27 36 32 51 32 98 0
41 -6 64 -23 89 -12 19 -110 107 -217 197 -224 187 -256 202 -340 166z m150
-59 c19 -13 111 -88 205 -167 132 -111 172 -151 181 -178 17 -53 6 -97 -36
-141 -33 -35 -42 -39 -84 -39 -26 0 -57 5 -69 11 -37 20 -391 320 -404 343
-19 33 -16 104 7 140 18 29 39 46 80 60 27 9 84 -5 120 -29z"/>
</g>

</svg>
