<?xml version="1.0" encoding="UTF-8"?>
<!DOCTYPE svg PUBLIC "-//W3C//DTD SVG 1.1//EN" "http://www.w3.org/Graphics/SVG/1.1/DTD/svg11.dtd">
<svg xmlns="http://www.w3.org/2000/svg" version="1.1" width="478px" height="554px"
     style="shape-rendering:geometricPrecision; text-rendering:geometricPrecision; image-rendering:optimizeQuality; fill-rule:evenodd; clip-rule:evenodd"
     xmlns:xlink="http://www.w3.org/1999/xlink">
    <g>
        <path style="opacity:1"
              d="M -0.5,-0.5 C 50.5,-0.5 101.5,-0.5 152.5,-0.5C 111.662,5.82914 86.1623,29.1625 76,69.5C 75.6667,103.167 75.3333,136.833 75,170.5C 69.9755,160.569 62.1421,157.069 51.5,160C 38.1667,171.333 24.8333,182.667 11.5,194C 3.38084,206.642 6.04751,216.309 19.5,223C 26.4377,224.434 32.4377,222.767 37.5,218C 49.6951,207.301 61.6951,196.468 73.5,185.5C 74.1667,281.5 74.8333,377.5 75.5,473.5C 78.6232,505.096 93.9565,528.596 121.5,544C 129.181,547.588 137.181,550.255 145.5,552C 207.527,552.974 269.527,552.64 331.5,551C 368.63,541.536 391.13,518.036 399,480.5C 399.667,344.167 399.667,207.833 399,71.5C 389.962,30.9595 365.129,6.95949 324.5,-0.5C 375.5,-0.5 426.5,-0.5 477.5,-0.5C 477.5,184.167 477.5,368.833 477.5,553.5C 318.167,553.5 158.833,553.5 -0.5,553.5C -0.5,368.833 -0.5,184.167 -0.5,-0.5 Z"/>
    </g>
    <g>
        <path style="opacity:1"
              d="M 152.5,-0.5 C 209.833,-0.5 267.167,-0.5 324.5,-0.5C 365.129,6.95949 389.962,30.9595 399,71.5C 399.667,207.833 399.667,344.167 399,480.5C 391.13,518.036 368.63,541.536 331.5,551C 269.527,552.64 207.527,552.974 145.5,552C 137.181,550.255 129.181,547.588 121.5,544C 93.9565,528.596 78.6232,505.096 75.5,473.5C 75.6667,376.499 75.5,279.499 75,182.5C 74.4867,183.527 73.9867,184.527 73.5,185.5C 61.6951,196.468 49.6951,207.301 37.5,218C 32.4377,222.767 26.4377,224.434 19.5,223C 6.04751,216.309 3.38084,206.642 11.5,194C 24.8333,182.667 38.1667,171.333 51.5,160C 62.1421,157.069 69.9755,160.569 75,170.5C 75.3333,136.833 75.6667,103.167 76,69.5C 86.1623,29.1625 111.662,5.82914 152.5,-0.5 Z"/>
    </g>
    <g>
        <path style="opacity:1"
              d="M 148.5,3.5 C 209.532,3.02272 270.532,3.52272 331.5,5C 365.967,14.4669 387.134,36.6336 395,71.5C 395.667,207.833 395.667,344.167 395,480.5C 387.841,512.986 368.674,534.819 337.5,546C 330.888,547.327 324.222,548.327 317.5,549C 260.149,549.95 202.816,549.617 145.5,548C 111.973,540.14 90.4725,519.64 81,486.5C 80.0336,480.87 79.3669,475.204 79,469.5C 78.3333,338.5 78.3333,207.5 79,76.5C 83.8275,45.0092 100.661,22.5092 129.5,9C 135.828,6.6729 142.162,4.83957 148.5,3.5 Z"/>
    </g>
    <g>
        <path style="opacity:1"
              d="M 173.5,101.5 C 196.868,98.5967 213.701,107.597 224,128.5C 225.962,133.656 226.795,138.989 226.5,144.5C 255.527,144.077 284.527,144.577 313.5,146C 351.967,157.131 375.133,182.298 383,221.5C 383.667,299.5 383.667,377.5 383,455.5C 375.721,498.446 350.888,524.946 308.5,535C 261.5,535.667 214.5,535.667 167.5,535C 127.239,525.739 102.739,500.905 94,460.5C 93.3333,379.5 93.3333,298.5 94,217.5C 100.278,189.58 115.778,168.58 140.5,154.5C 137.576,135.185 143.91,119.685 159.5,108C 164.147,105.506 168.814,103.339 173.5,101.5 Z"/>
    </g>
    <g>
        <path style="opacity:1"
              d="M 174.5,105.5 C 198.514,102.748 214.347,112.748 222,135.5C 224.443,160.454 213.61,176.287 189.5,183C 166.797,184.393 151.964,174.227 145,152.5C 142.2,128.744 152.033,113.077 174.5,105.5 Z"/>
    </g>
    <g>
        <path style="opacity:1"
              d="M 175.5,109.5 C 204.726,108.558 218.559,122.558 217,151.5C 210.663,171.766 196.83,180.6 175.5,178C 161.864,174.032 153.364,165.199 150,151.5C 147.204,130.495 155.704,116.495 175.5,109.5 Z"/>
    </g>
    <g>
        <path style="opacity:1"
              d="M 176.5,112.5 C 194.76,110.876 207.26,118.543 214,135.5C 216.324,163.509 203.491,176.675 175.5,175C 157.29,168.093 149.79,154.926 153,135.5C 157.303,124.121 165.136,116.454 176.5,112.5 Z"/>
    </g>
    <g>
        <path style="opacity:1"

              d="M 226.5,147.5 C 249.836,147.333 273.169,147.5 296.5,148C 332.389,150.584 357.889,168.084 373,200.5C 375.241,205.65 376.907,210.983 378,216.5C 379.15,257.302 379.65,298.135 379.5,339C 379.333,377.833 379.167,416.667 379,455.5C 372.256,496.801 348.423,521.968 307.5,531C 283.855,532.105 260.188,532.605 236.5,532.5C 216.5,532.333 196.5,532.167 176.5,532C 142.756,528.219 118.589,511.053 104,480.5C 100.73,472.085 98.3963,463.419 97,454.5C 96.3333,377.833 96.3333,301.167 97,224.5C 101.17,195.688 115.67,173.855 140.5,159C 141.448,158.517 142.448,158.351 143.5,158.5C 148.61,173.437 158.943,182.604 174.5,186C 203.61,188.955 220.943,176.121 226.5,147.5 Z"/>
    </g>
    <g>
        <path style="opacity:1"
              d="M 413.5,158.5 C 418.08,158.113 422.414,158.947 426.5,161C 440.465,171.907 453.965,183.407 467,195.5C 472.534,207.57 469.367,216.403 457.5,222C 453.044,222.867 448.711,222.534 444.5,221C 430.39,209.858 416.556,198.358 403,186.5C 397.287,173.607 400.787,164.274 413.5,158.5 Z"/>
    </g>
    <g>
        <path style="opacity:1"
              d="M 54.5,162.5 C 69.9383,163.365 74.7716,171.032 69,185.5C 56.7802,196.688 44.2802,207.521 31.5,218C 19.8303,222.002 12.8303,218.002 10.5,206C 10.6148,203.268 11.4481,200.768 13,198.5C 26.4351,185.888 40.2684,173.888 54.5,162.5 Z"/>
    </g>
    <g>
        <path style="opacity:1"
              d="M 413.5,162.5 C 419.04,162.3 424.04,163.8 428.5,167C 440.613,176.812 452.446,186.978 464,197.5C 468.454,209.269 464.621,216.269 452.5,218.5C 449.205,218.705 446.205,217.872 443.5,216C 431.333,205.833 419.167,195.667 407,185.5C 402.031,175.638 404.198,167.971 413.5,162.5 Z"/>
    </g>
    <g>
        <path style="opacity:1"
              d="M 75.5,473.5 C 74.8333,377.5 74.1667,281.5 73.5,185.5C 73.9867,184.527 74.4867,183.527 75,182.5C 75.5,279.499 75.6667,376.499 75.5,473.5 Z"/>
    </g>
    <g>
        <path style="opacity:1"
              d="M 142.5,194.5 C 168.835,194.333 195.169,194.5 221.5,195C 225.612,196.779 228.778,199.612 231,203.5C 231.667,230.167 231.667,256.833 231,283.5C 229.167,288 226,291.167 221.5,293C 195.167,293.667 168.833,293.667 142.5,293C 137.572,291.073 134.406,287.573 133,282.5C 132.333,256.5 132.333,230.5 133,204.5C 135.022,199.98 138.189,196.647 142.5,194.5 Z"/>
    </g>
    <g>
        <path style="opacity:1"
              d="M 145.5,195.5 C 169.502,195.333 193.502,195.5 217.5,196C 223.469,197.298 227.635,200.798 230,206.5C 230.667,231.167 230.667,255.833 230,280.5C 228.058,286.776 223.891,290.61 217.5,292C 210.5,292.667 203.5,292.667 196.5,292C 200.212,289.487 201.378,285.987 200,281.5C 199.167,280.667 198.333,279.833 197.5,279C 200.5,278.667 203.5,278.333 206.5,278C 208.667,277.167 210.167,275.667 211,273.5C 209.803,282.63 213.637,286.797 222.5,286C 224.333,285.5 225.5,284.333 226,282.5C 226.667,256.5 226.667,230.5 226,204.5C 215.702,198.2 210.702,201.2 211,213.5C 210.167,211.333 208.667,209.833 206.5,209C 190.167,208.333 173.833,208.333 157.5,209C 155.714,209.785 154.214,210.951 153,212.5C 152.774,201.973 147.94,198.973 138.5,203.5C 138.192,204.308 137.692,204.975 137,205.5C 136.333,230.5 136.333,255.5 137,280.5C 138.458,286.059 141.958,287.892 147.5,286C 148.931,285.535 150.097,284.701 151,283.5C 151.988,280.576 152.654,277.576 153,274.5C 155.807,277.558 159.307,279.225 163.5,279.5C 160.674,283.892 161.007,288.059 164.5,292C 158.167,292.667 151.833,292.667 145.5,292C 140,290.5 136.5,287 135,281.5C 134.333,255.833 134.333,230.167 135,204.5C 137.489,200.168 140.989,197.168 145.5,195.5 Z"/>
    </g>
    <g>
        <path style="opacity:1"
              d="M 216.5,202.5 C 220.273,201.822 223.106,203.156 225,206.5C 225.667,230.833 225.667,255.167 225,279.5C 224.425,282.797 222.425,284.464 219,284.5C 216.695,284.516 215.028,283.516 214,281.5C 213.333,256.167 213.333,230.833 214,205.5C 215.045,204.627 215.878,203.627 216.5,202.5 Z"/>
    </g>
    <g>
        <path style="opacity:1"
              d="M 142.5,202.5 C 145.809,202.308 148.309,203.641 150,206.5C 150.667,231.5 150.667,256.5 150,281.5C 146.333,285.5 142.667,285.5 139,281.5C 138.333,256.5 138.333,231.5 139,206.5C 139.69,204.65 140.856,203.316 142.5,202.5 Z"/>
    </g>
    <g>
        <path style="opacity:1"
              d="M 159.5,209.5 C 175.238,209.047 190.904,209.547 206.5,211C 208.049,212.214 209.215,213.714 210,215.5C 210.667,229.5 210.667,243.5 210,257.5C 209.25,256.874 208.416,256.374 207.5,256C 190.833,255.333 174.167,255.333 157.5,256C 156.069,256.465 154.903,257.299 154,258.5C 153.333,243.833 153.333,229.167 154,214.5C 155.73,212.598 157.563,210.931 159.5,209.5 Z"/>
    </g>
    <g>
        <path style="opacity:1"
              d="M 157.5,257.5 C 173.837,257.333 190.17,257.5 206.5,258C 210.436,261.159 210.436,264.492 206.5,268C 190.167,268.667 173.833,268.667 157.5,268C 153.552,264.422 153.552,260.922 157.5,257.5 Z"/>
    </g>
    <g>
        <path style="opacity:1"
              d="M 153.5,267.5 C 154.289,267.783 154.956,268.283 155.5,269C 173.167,269.667 190.833,269.667 208.5,269C 209.94,266.968 210.607,267.302 210.5,270C 209.55,273.616 207.217,275.95 203.5,277C 189.167,277.667 174.833,277.667 160.5,277C 155.632,275.64 153.299,272.474 153.5,267.5 Z"/>
    </g>
    <g>
        <path style="opacity:1"
              d="M 254.5,194.5 C 280.835,194.333 307.169,194.5 333.5,195C 338.757,197.256 342.257,201.09 344,206.5C 344.667,231.5 344.667,256.5 344,281.5C 342.257,286.91 338.757,290.744 333.5,293C 307.167,293.667 280.833,293.667 254.5,293C 249.162,290.993 245.996,287.159 245,281.5C 244.333,256.167 244.333,230.833 245,205.5C 246.599,200.406 249.766,196.739 254.5,194.5 Z"/>
    </g>
    <g>
        <path style="opacity:1"
              d="M 275.5,290.5 C 269.69,291.49 263.69,291.823 257.5,291.5C 251.917,290.419 248.417,287.085 247,281.5C 246.333,256.167 246.333,230.833 247,205.5C 248.927,200.572 252.427,197.406 257.5,196C 282.167,195.333 306.833,195.333 331.5,196C 336.693,197.859 340.193,201.359 342,206.5C 342.667,231.167 342.667,255.833 342,280.5C 338.786,290.112 332.119,293.779 322,291.5C 318.167,291.333 314.333,291.167 310.5,291C 313.128,287.132 313.128,283.299 310.5,279.5C 315.364,279.388 319.53,277.721 323,274.5C 322.726,284.584 327.226,288.084 336.5,285C 337.893,283.829 338.727,282.329 339,280.5C 339.981,255.079 339.647,229.746 338,204.5C 334.743,201.572 330.909,200.738 326.5,202C 324.059,205.011 322.893,208.511 323,212.5C 321.786,210.951 320.286,209.785 318.5,209C 302.167,208.333 285.833,208.333 269.5,209C 267.333,209.833 265.833,211.333 265,213.5C 266.2,203.698 262.034,199.864 252.5,202C 251.333,203.167 250.167,204.333 249,205.5C 248.333,230.5 248.333,255.5 249,280.5C 250.98,285.906 254.814,287.739 260.5,286C 263.879,282.588 265.379,278.422 265,273.5C 267.561,277.75 271.394,279.583 276.5,279C 272.912,282.602 272.579,286.435 275.5,290.5 Z"/>
    </g>
    <g>
        <path style="opacity:1"
              d="M 265.5,266.5 C 266.309,267.469 267.309,268.302 268.5,269C 286.211,269.819 303.877,269.653 321.5,268.5C 322.262,272.954 320.262,275.787 315.5,277C 301.167,277.667 286.833,277.667 272.5,277C 267.117,275.463 264.784,271.963 265.5,266.5 Z"/>
    </g>
    <g>
        <path style="opacity:1"
              d="M 269.5,257.5 C 286.17,257.333 302.837,257.5 319.5,258C 323.072,260.626 323.405,263.626 320.5,267C 303.167,267.667 285.833,267.667 268.5,267C 265.675,263.476 266.008,260.31 269.5,257.5 Z"/>
    </g>
    <g>
        <path style="opacity:1"
              d="M 271.5,209.5 C 287.238,209.047 302.904,209.547 318.5,211C 320.487,212.319 321.654,214.152 322,216.5C 322.667,230.167 322.667,243.833 322,257.5C 321.25,256.874 320.416,256.374 319.5,256C 302.833,255.333 286.167,255.333 269.5,256C 268.069,256.465 266.903,257.299 266,258.5C 265.333,244.167 265.333,229.833 266,215.5C 267.36,212.977 269.193,210.977 271.5,209.5 Z"/>
    </g>
    <g>
        <path style="opacity:1"
              d="M 329.5,202.5 C 332.785,202.269 335.285,203.603 337,206.5C 337.667,231.5 337.667,256.5 337,281.5C 333.333,285.5 329.667,285.5 326,281.5C 325.333,256.5 325.333,231.5 326,206.5C 326.69,204.65 327.856,203.316 329.5,202.5 Z"/>
    </g>
    <g>
        <path style="opacity:1"
              d="M 253.5,202.5 C 256.862,202.07 259.695,203.07 262,205.5C 262.667,230.833 262.667,256.167 262,281.5C 258.333,285.5 254.667,285.5 251,281.5C 250.333,256.5 250.333,231.5 251,206.5C 252.095,205.307 252.928,203.973 253.5,202.5 Z"/>
    </g>
    <g>
        <path style="opacity:1"
              d="M 166.5,279.5 C 176.172,279.334 185.839,279.5 195.5,280C 199,283.004 199.333,286.337 196.5,290C 186.167,290.667 175.833,290.667 165.5,290C 162.721,286.181 163.054,282.681 166.5,279.5 Z"/>
    </g>
    <g>
        <path style="opacity:1"
              d="M 278.5,279.5 C 288.172,279.334 297.839,279.5 307.5,280C 308.416,280.374 309.25,280.874 310,281.5C 310.978,284.669 310.478,287.503 308.5,290C 298.167,290.667 287.833,290.667 277.5,290C 274.721,286.181 275.054,282.681 278.5,279.5 Z"/>
    </g>
    <g>
        <path style="opacity:1"
              d="M 275.5,290.5 C 276.289,290.783 276.956,291.283 277.5,292C 270.654,292.821 263.987,292.654 257.5,291.5C 263.69,291.823 269.69,291.49 275.5,290.5 Z"/>
    </g>
    <g>
        <path style="opacity:1"
              d="M 255.5,302.5 C 281.169,302.333 306.835,302.5 332.5,303C 338.333,304.833 342.167,308.667 344,314.5C 344.667,339.5 344.667,364.5 344,389.5C 342.167,396 338,400.167 331.5,402C 306.167,402.667 280.833,402.667 255.5,402C 249.798,399.635 246.298,395.469 245,389.5C 244.333,364.167 244.333,338.833 245,313.5C 247.046,308.29 250.546,304.623 255.5,302.5 Z"/>
    </g>
    <g>
        <path style="opacity:1"
              d="M 255.5,304.5 C 281.169,304.333 306.835,304.5 332.5,305C 337,306.833 340.167,310 342,314.5C 342.667,339.5 342.667,364.5 342,389.5C 340.474,395.026 336.974,398.526 331.5,400C 324.167,400.667 316.833,400.667 309.5,400C 313.05,396.269 313.383,392.269 310.5,388C 315.713,388.476 319.88,386.642 323,382.5C 322.177,392.017 326.344,395.85 335.5,394C 337.049,392.786 338.215,391.286 339,389.5C 339.667,364.5 339.667,339.5 339,314.5C 336.459,309.931 332.625,308.431 327.5,310C 324.046,312.969 322.546,316.802 323,321.5C 321.891,319.185 320.057,317.685 317.5,317C 301.5,316.333 285.5,316.333 269.5,317C 267.43,317.948 265.93,319.448 265,321.5C 265.547,312.376 261.38,308.543 252.5,310C 251.667,310.833 250.833,311.667 250,312.5C 248.352,338.079 248.019,363.746 249,389.5C 251.435,394.224 255.269,395.724 260.5,394C 263.809,390.974 265.309,387.141 265,382.5C 268.069,385.807 271.902,387.307 276.5,387C 272.5,391.333 272.5,395.667 276.5,400C 269.833,400.667 263.167,400.667 256.5,400C 251.6,398.098 248.433,394.598 247,389.5C 246.333,364.167 246.333,338.833 247,313.5C 248.688,309.315 251.521,306.315 255.5,304.5 Z"/>
    </g>
    <g>
        <path style="opacity:1"
              d="M 328.5,311.5 C 331.97,310.875 334.804,311.875 337,314.5C 337.667,339.5 337.667,364.5 337,389.5C 333.287,393.487 329.62,393.487 326,389.5C 325.333,364.5 325.333,339.5 326,314.5C 326.698,313.309 327.531,312.309 328.5,311.5 Z"/>
    </g>
    <g>
        <path style="opacity:1"
              d="M 253.5,311.5 C 257.013,310.876 259.847,311.876 262,314.5C 262.667,339.5 262.667,364.5 262,389.5C 258.38,393.487 254.713,393.487 251,389.5C 250.333,364.5 250.333,339.5 251,314.5C 252.045,313.627 252.878,312.627 253.5,311.5 Z"/>
    </g>
    <g>
        <path style="opacity:1"
              d="M 142.5,302.5 C 168.502,302.333 194.502,302.5 220.5,303C 225.573,304.406 229.073,307.572 231,312.5C 231.667,338.833 231.667,365.167 231,391.5C 228.768,396.731 224.935,400.231 219.5,402C 194.5,402.667 169.5,402.667 144.5,402C 138.667,400.167 134.833,396.333 133,390.5C 132.333,364.5 132.333,338.5 133,312.5C 135.022,307.98 138.189,304.647 142.5,302.5 Z"/>
    </g>
    <g>
        <path style="opacity:1"
              d="M 143.5,304.5 C 168.836,304.333 194.169,304.5 219.5,305C 225,306.5 228.5,310 230,315.5C 230.667,340.167 230.667,364.833 230,389.5C 228.385,394.904 224.885,398.404 219.5,400C 212.167,400.667 204.833,400.667 197.5,400C 201.012,396.264 201.345,392.264 198.5,388C 203.39,387.707 207.557,385.874 211,382.5C 209.8,392.302 213.966,396.136 223.5,394C 224.701,393.097 225.535,391.931 226,390.5C 226.667,364.833 226.667,339.167 226,313.5C 224.607,310.634 222.274,309.301 219,309.5C 216.739,309.439 214.739,310.106 213,311.5C 211.847,314.711 211.18,318.044 211,321.5C 209.773,319.274 207.939,317.774 205.5,317C 189.5,316.333 173.5,316.333 157.5,317C 155.333,317.833 153.833,319.333 153,321.5C 153.547,312.376 149.38,308.543 140.5,310C 139.333,311.167 138.167,312.333 137,313.5C 136.333,338.833 136.333,364.167 137,389.5C 139.435,394.224 143.269,395.724 148.5,394C 151.557,390.839 153.057,387.005 153,382.5C 155.969,385.954 159.802,387.454 164.5,387C 160.5,391.333 160.5,395.667 164.5,400C 157.833,400.667 151.167,400.667 144.5,400C 141.098,398.6 138.264,396.433 136,393.5C 134.36,366.896 134.027,340.229 135,313.5C 136.688,309.315 139.521,306.315 143.5,304.5 Z"/>
    </g>
    <g>
        <path style="opacity:1"
              d="M 215.5,311.5 C 219.287,310.814 222.454,311.814 225,314.5C 225.667,339.167 225.667,363.833 225,388.5C 224.06,391.442 222.06,392.775 219,392.5C 216.966,392.646 215.299,391.98 214,390.5C 213.333,364.833 213.333,339.167 214,313.5C 214.717,312.956 215.217,312.289 215.5,311.5 Z"/>
    </g>
    <g>
        <path style="opacity:1"
              d="M 141.5,311.5 C 144.97,310.875 147.804,311.875 150,314.5C 150.667,339.5 150.667,364.5 150,389.5C 146.333,393.5 142.667,393.5 139,389.5C 138.333,364.5 138.333,339.5 139,314.5C 140.045,313.627 140.878,312.627 141.5,311.5 Z"/>
    </g>
    <g>
        <path style="opacity:1"
              d="M 157.5,318.5 C 174.262,318.029 190.928,318.529 207.5,320C 208.701,320.903 209.535,322.069 210,323.5C 210.833,337.512 210.666,351.512 209.5,365.5C 191.544,364.347 173.544,364.18 155.5,365C 155,365.5 154.5,366 154,366.5C 153.333,351.833 153.333,337.167 154,322.5C 155.376,321.295 156.542,319.962 157.5,318.5 Z"/>
    </g>
    <g>
        <path style="opacity:1"
              d="M 270.5,318.5 C 286.503,318.333 302.503,318.5 318.5,319C 319.667,320.167 320.833,321.333 322,322.5C 322.833,336.845 322.666,351.178 321.5,365.5C 303.877,364.347 286.211,364.181 268.5,365C 267.584,365.374 266.75,365.874 266,366.5C 265.333,352.167 265.333,337.833 266,323.5C 267.025,321.313 268.525,319.646 270.5,318.5 Z"/>
    </g>
    <g>
        <path style="opacity:1"
              d="M 157.5,365.5 C 173.837,365.333 190.17,365.5 206.5,366C 208.91,366.758 209.91,368.425 209.5,371C 209.646,373.034 208.98,374.701 207.5,376C 190.833,376.667 174.167,376.667 157.5,376C 153.565,372.504 153.565,369.004 157.5,365.5 Z"/>
    </g>
    <g>
        <path style="opacity:1"
              d="M 270.5,365.5 C 286.503,365.333 302.503,365.5 318.5,366C 323.395,368.823 323.729,372.157 319.5,376C 302.833,376.667 286.167,376.667 269.5,376C 265.336,372.005 265.669,368.505 270.5,365.5 Z"/>
    </g>
    <g>
        <path style="opacity:1"
              d="M 153.5,375.5 C 154.683,376.504 156.016,377.338 157.5,378C 174.167,378.667 190.833,378.667 207.5,378C 208.965,375.917 209.965,376.084 210.5,378.5C 209.303,381.863 206.969,384.03 203.5,385C 188.833,385.667 174.167,385.667 159.5,385C 155.199,383.215 153.199,380.048 153.5,375.5 Z"/>
    </g>
    <g>
        <path style="opacity:1"
              d="M 265.5,375.5 C 266.683,376.504 268.016,377.338 269.5,378C 286.167,378.667 302.833,378.667 319.5,378C 320.416,377.626 321.25,377.126 322,376.5C 322.219,380.97 320.052,383.803 315.5,385C 300.833,385.667 286.167,385.667 271.5,385C 267.392,383.188 265.392,380.021 265.5,375.5 Z"/>
    </g>
    <g>
        <path style="opacity:1"
              d="M 166.5,387.5 C 175.839,387.334 185.173,387.5 194.5,388C 198.213,389.691 199.379,392.525 198,396.5C 197.097,397.701 195.931,398.535 194.5,399C 185.167,399.667 175.833,399.667 166.5,399C 162.555,395.169 162.555,391.336 166.5,387.5 Z"/>
    </g>
    <g>
        <path style="opacity:1"
              d="M 278.5,387.5 C 287.839,387.334 297.173,387.5 306.5,388C 310.213,389.691 311.379,392.525 310,396.5C 309.097,397.701 307.931,398.535 306.5,399C 297.167,399.667 287.833,399.667 278.5,399C 274.555,395.169 274.555,391.336 278.5,387.5 Z"/>
    </g>
    <g>
        <path style="opacity:1"
              d="M 143.5,410.5 C 169.169,410.333 194.835,410.5 220.5,411C 225.598,412.433 229.098,415.6 231,420.5C 231.667,446.833 231.667,473.167 231,499.5C 229.526,504.974 226.026,508.474 220.5,510C 194.833,510.667 169.167,510.667 143.5,510C 138.243,507.744 134.743,503.91 133,498.5C 132.333,472.833 132.333,447.167 133,421.5C 135.357,416.645 138.857,412.979 143.5,410.5 Z"/>
    </g>
    <g>
        <path style="opacity:1"
              d="M 143.5,412.5 C 169.169,412.333 194.835,412.5 220.5,413C 225.428,414.927 228.594,418.427 230,423.5C 230.667,448.167 230.667,472.833 230,497.5C 228.567,502.598 225.4,506.098 220.5,508C 212.833,508.667 205.167,508.667 197.5,508C 201.115,504.341 201.448,500.341 198.5,496C 203.713,496.476 207.88,494.642 211,490.5C 210.702,502.8 215.702,505.8 226,499.5C 226.667,473.5 226.667,447.5 226,421.5C 221.391,416.293 216.724,416.293 212,421.5C 211.667,424.167 211.333,426.833 211,429.5C 209.363,427.19 207.196,425.69 204.5,425C 188.833,424.333 173.167,424.333 157.5,425C 155.43,425.948 153.93,427.448 153,429.5C 152.685,418.185 147.685,415.185 138,420.5C 136.352,446.079 136.019,471.746 137,497.5C 139.388,502.226 143.222,503.726 148.5,502C 151.809,498.974 153.309,495.141 153,490.5C 155.311,494.453 158.811,496.287 163.5,496C 160.552,500.341 160.885,504.341 164.5,508C 157.5,508.667 150.5,508.667 143.5,508C 139.333,506.5 136.5,503.667 135,499.5C 134.333,473.5 134.333,447.5 135,421.5C 136.688,417.315 139.521,414.315 143.5,412.5 Z"/>
    </g>
    <g>
        <path style="opacity:1"
              d="M 216.5,419.5 C 220.355,418.845 223.188,420.179 225,423.5C 225.667,447.833 225.667,472.167 225,496.5C 222.168,502.201 218.502,502.867 214,498.5C 213.333,473.167 213.333,447.833 214,422.5C 214.698,421.309 215.531,420.309 216.5,419.5 Z"/>
    </g>
    <g>
        <path style="opacity:1"
              d="M 141.5,419.5 C 144.97,418.875 147.804,419.875 150,422.5C 150.667,447.5 150.667,472.5 150,497.5C 146.283,502.815 142.617,502.815 139,497.5C 138.333,472.5 138.333,447.5 139,422.5C 140.045,421.627 140.878,420.627 141.5,419.5 Z"/>
    </g>
    <g>
        <path style="opacity:1"
              d="M 158.5,426.5 C 174.17,426.333 189.837,426.5 205.5,427C 207.333,428.167 208.833,429.667 210,431.5C 210.667,445.833 210.667,460.167 210,474.5C 209.5,474 209,473.5 208.5,473C 191.167,472.333 173.833,472.333 156.5,473C 155.584,473.374 154.75,473.874 154,474.5C 153.333,460.167 153.333,445.833 154,431.5C 155.025,429.313 156.525,427.646 158.5,426.5 Z"/>
    </g>
    <g>
        <path style="opacity:1"
              d="M 158.5,473.5 C 174.17,473.333 189.837,473.5 205.5,474C 209.925,476.549 210.592,479.882 207.5,484C 190.833,484.667 174.167,484.667 157.5,484C 153.336,480.005 153.669,476.505 158.5,473.5 Z"/>
    </g>
    <g>
        <path style="opacity:1"
              d="M 153.5,483.5 C 154.627,484.122 155.627,484.955 156.5,486C 173.5,486.667 190.5,486.667 207.5,486C 208.416,485.626 209.25,485.126 210,484.5C 210.219,488.97 208.052,491.803 203.5,493C 188.5,493.667 173.5,493.667 158.5,493C 154.848,490.855 153.182,487.689 153.5,483.5 Z"/>
    </g>
    <g>
        <path style="opacity:1"
              d="M 167.5,495.5 C 176.506,495.334 185.506,495.5 194.5,496C 199.414,499.171 199.747,502.837 195.5,507C 185.833,507.667 176.167,507.667 166.5,507C 162.307,502.683 162.64,498.85 167.5,495.5 Z"/>
    </g>
    <g>
        <path style="opacity:1"
              d="M 255.5,410.5 C 281.169,410.333 306.835,410.5 332.5,411C 338.307,412.807 342.141,416.64 344,422.5C 344.667,447.833 344.667,473.167 344,498.5C 342.141,504.36 338.307,508.193 332.5,510C 306.833,510.667 281.167,510.667 255.5,510C 250.243,507.744 246.743,503.91 245,498.5C 244.333,472.833 244.333,447.167 245,421.5C 247.357,416.645 250.857,412.979 255.5,410.5 Z"/>
    </g>
    <g>
        <path style="opacity:1"
              d="M 256.5,412.5 C 281.836,412.333 307.169,412.5 332.5,413C 337,414.833 340.167,418 342,422.5C 342.667,447.833 342.667,473.167 342,498.5C 340.167,503 337,506.167 332.5,508C 324.833,508.667 317.167,508.667 309.5,508C 313.115,504.341 313.448,500.341 310.5,496C 315.572,496.092 319.739,494.258 323,490.5C 321.852,500.358 326.019,504.191 335.5,502C 337.049,500.786 338.215,499.286 339,497.5C 339.667,472.5 339.667,447.5 339,422.5C 336.337,418.275 332.504,416.775 327.5,418C 324.046,420.969 322.546,424.802 323,429.5C 321.661,426.906 319.494,425.406 316.5,425C 300.833,424.333 285.167,424.333 269.5,425C 268,426.5 266.5,428 265,429.5C 264.685,418.185 259.685,415.185 250,420.5C 248.352,446.079 248.019,471.746 249,497.5C 249.785,499.286 250.951,500.786 252.5,502C 261.981,504.191 266.148,500.358 265,490.5C 267.594,494.047 271.094,495.881 275.5,496C 272.655,500.264 272.988,504.264 276.5,508C 269.833,508.667 263.167,508.667 256.5,508C 252.026,506.192 248.859,503.026 247,498.5C 246.333,472.833 246.333,447.167 247,421.5C 249.43,417.566 252.597,414.566 256.5,412.5 Z"/>
    </g>
    <g>
        <path style="opacity:1"
              d="M 277.5,496.5 C 287.839,496.334 298.172,496.5 308.5,497C 311.333,500.663 311,503.996 307.5,507C 297.833,507.667 288.167,507.667 278.5,507C 274.935,503.784 274.602,500.284 277.5,496.5 Z"/>
    </g>
    <g>
        <path style="opacity:1"
              d="M 265.5,483.5 C 266.627,484.122 267.627,484.955 268.5,486C 285.5,486.667 302.5,486.667 319.5,486C 320.416,485.626 321.25,485.126 322,484.5C 322.404,489.158 320.238,491.991 315.5,493C 300.5,493.667 285.5,493.667 270.5,493C 266.81,490.831 265.143,487.664 265.5,483.5 Z"/>
    </g>
    <g>
        <path style="opacity:1"
              d="M 268.5,474.5 C 285.503,474.333 302.503,474.5 319.5,475C 323.482,477.952 323.482,480.952 319.5,484C 302.833,484.667 286.167,484.667 269.5,484C 265.846,481.209 265.513,478.043 268.5,474.5 Z"/>
    </g>
    <g>
        <path style="opacity:1"
              d="M 270.5,426.5 C 286.929,426.03 303.262,426.53 319.5,428C 320.701,428.903 321.535,430.069 322,431.5C 322.833,445.512 322.666,459.512 321.5,473.5C 303.877,472.347 286.211,472.181 268.5,473C 267.584,473.374 266.75,473.874 266,474.5C 265.333,460.167 265.333,445.833 266,431.5C 267.059,429.341 268.559,427.674 270.5,426.5 Z"/>
    </g>
    <g>
        <path style="opacity:1"
              d="M 328.5,419.5 C 331.97,418.875 334.804,419.875 337,422.5C 337.667,447.5 337.667,472.5 337,497.5C 333.234,502.796 329.567,502.796 326,497.5C 325.333,472.5 325.333,447.5 326,422.5C 327.045,421.627 327.878,420.627 328.5,419.5 Z"/>
    </g>
    <g>
        <path style="opacity:1"
              d="M 253.5,419.5 C 256.97,418.875 259.804,419.875 262,422.5C 262.667,447.5 262.667,472.5 262,497.5C 258.433,502.796 254.766,502.796 251,497.5C 250.333,472.5 250.333,447.5 251,422.5C 252.045,421.627 252.878,420.627 253.5,419.5 Z"/>
    </g>
</svg>
