<svg version="1.0" xmlns="http://www.w3.org/2000/svg"
     width="1200.000000pt" height="1200.000000pt" viewBox="0 0 1200.000000 1200.000000"
     preserveAspectRatio="xMidYMid meet">

    <g transform="translate(0.000000,1200.000000) scale(0.100000,-0.100000)">
        <path d="M6320 7524 c-19 -2 -84 -9 -145 -15 -248 -25 -559 -93 -785 -171
-205 -72 -349 -147 -958 -500 l-274 -159 -416 -24 c-449 -26 -459 -27 -756
-51 l-198 -16 -132 -55 c-90 -37 -164 -60 -236 -74 -159 -29 -342 -75 -475
-119 -279 -93 -632 -301 -672 -398 -8 -21 -14 -73 -15 -140 -1 -83 -5 -115
-19 -144 -20 -38 -26 -151 -13 -217 6 -29 9 -31 35 -26 21 5 30 2 38 -14 18
-33 13 -41 -29 -41 l-40 0 0 -149 c0 -146 0 -149 -24 -165 -29 -19 -42 -52
-27 -70 8 -10 -1 -18 -40 -36 -68 -32 -139 -109 -139 -151 0 -52 71 -106 200
-151 60 -21 209 -25 457 -12 l121 7 27 63 27 64 85 0 85 0 45 -50 c91 -101
256 -197 388 -225 92 -19 248 -19 338 1 141 32 274 107 403 227 l76 71 177 -3
c97 -2 1223 7 2504 20 l2327 23 17 -25 c66 -95 199 -204 322 -263 112 -54 199
-69 350 -64 107 4 140 10 221 37 219 74 396 231 466 413 15 40 31 77 35 82 4
5 33 5 63 2 56 -7 56 -8 56 -42 0 -30 3 -34 23 -29 12 2 218 34 457 70 515 78
540 82 540 100 0 14 21 25 50 25 41 0 71 82 106 292 28 166 28 165 16 348 -11
165 -49 270 -125 344 l-50 49 -1 128 c-1 117 -3 130 -24 159 -22 30 -23 38
-18 128 3 53 8 116 11 138 6 38 4 45 -30 83 -34 37 -42 41 -86 41 -27 0 -49 2
-49 5 0 3 18 40 39 83 l39 77 74 22 c40 12 83 31 95 42 27 26 58 106 95 254
36 142 33 152 -48 145 -34 -3 -68 -15 -103 -36 -35 -22 -64 -32 -91 -32 -22 0
-40 3 -40 8 -1 4 -13 22 -29 40 l-28 32 -172 -25 c-95 -14 -176 -25 -181 -25
-4 0 -20 -25 -36 -55 -22 -43 -34 -55 -52 -55 -19 0 -22 4 -17 20 17 53 -63
67 -145 25 -65 -33 -92 -32 -123 4 l-25 30 -147 -24 c-158 -26 -153 -23 -196
-102 l-23 -43 43 -127 c23 -71 45 -133 47 -140 3 -7 -142 37 -323 98 -180 60
-487 157 -683 215 -195 59 -361 112 -369 118 -8 6 -25 35 -38 64 -30 67 -49
75 -178 70 -88 -4 -110 -9 -171 -37 l-71 -33 -129 16 c-288 35 -506 48 -884
51 -212 2 -401 1 -420 -1z m885 -44 c253 -19 436 -40 710 -81 264 -40 278 -43
630 -149 198 -60 557 -175 798 -255 241 -81 444 -145 450 -142 7 3 41 39 75
81 51 61 60 77 47 82 -9 4 -33 -1 -53 -9 -24 -10 -75 -17 -142 -19 l-105 -3
-41 120 -41 120 25 45 c14 25 26 46 27 47 1 1 59 12 131 23 l129 22 26 -31
c33 -40 68 -40 151 -1 86 41 102 40 95 -5 l-6 -35 53 0 53 0 27 50 c15 27 30
51 34 54 4 2 77 14 162 27 l154 22 36 -42 c35 -41 37 -41 85 -35 28 4 79 22
114 40 74 39 111 44 111 15 0 -23 -63 -245 -84 -294 -11 -28 -24 -39 -68 -55
-30 -11 -70 -23 -89 -27 -33 -6 -39 -13 -92 -121 l-57 -114 65 0 c60 0 68 -3
103 -34 l37 -34 -20 -22 c-32 -35 -64 -47 -185 -70 -122 -23 -172 -40 -205
-69 -11 -10 -41 -30 -66 -44 -59 -34 -99 -81 -99 -116 0 -51 86 -138 211 -213
96 -58 154 -72 274 -65 l100 7 56 -53 c47 -43 62 -66 89 -137 29 -73 34 -103
41 -215 5 -71 9 -134 9 -140 2 -11 -176 -474 -185 -483 -3 -4 -205 -36 -448
-74 -243 -37 -457 -70 -474 -73 l-33 -6 0 55 c0 164 -56 431 -115 553 -68 137
-244 293 -412 362 -239 98 -528 88 -768 -29 -155 -75 -263 -185 -345 -355 -48
-97 -100 -268 -100 -326 0 -15 -5 -31 -11 -35 -20 -12 -1243 -53 -1254 -42 -3
3 13 50 36 104 131 314 278 736 300 860 6 36 9 101 7 144 l-5 77 96 7 c835 55
1930 109 2519 122 235 6 292 10 292 21 0 10 -35 13 -172 13 -394 0 -1448 -48
-2428 -110 -167 -11 -307 -16 -311 -12 -3 4 -16 34 -28 68 -12 33 -35 80 -52
105 l-29 44 37 7 c21 4 324 17 673 28 349 12 723 25 831 29 l195 8 62 33 c77
41 132 99 132 139 0 24 -9 35 -47 59 -143 92 -625 270 -886 327 -333 72 -706
135 -807 135 -48 0 -49 -1 -59 -37 -6 -21 -55 -192 -109 -380 -82 -282 -96
-343 -83 -343 27 0 145 -209 127 -227 -2 -2 -38 -7 -79 -10 -75 -6 -75 -6 -88
23 -19 38 -46 42 -239 33 -186 -8 -234 -19 -276 -65 l-32 -33 -564 -41 c-760
-55 -1734 -128 -1781 -135 -36 -5 -38 -4 -32 17 32 104 123 221 200 258 42 20
61 50 33 50 -26 0 -115 -60 -156 -104 -39 -42 -101 -154 -115 -205 -5 -22 2
-20 -293 -46 -324 -27 -350 -45 -281 -190 101 -210 185 -288 347 -324 105 -23
100 -23 100 -1 0 14 -7 20 -23 20 -52 0 -133 32 -170 68 -39 38 -110 146 -185
283 l-42 77 24 6 c41 10 264 34 386 42 l116 6 -4 -161 c-6 -238 17 -499 69
-764 12 -60 20 -110 18 -112 -2 -1 -119 -6 -260 -10 l-256 -8 -8 49 c-13 90
-64 274 -101 362 -108 260 -252 402 -489 481 -172 57 -362 64 -545 21 -104
-25 -263 -103 -347 -170 -224 -179 -325 -464 -310 -872 4 -118 2 -148 -8 -148
-31 0 -60 245 -45 383 37 361 231 654 521 792 134 63 212 79 404 79 147 1 181
-2 253 -22 87 -23 184 -65 239 -102 29 -20 34 -20 39 -5 8 20 -11 36 -101 79
-293 144 -707 115 -975 -67 -212 -145 -374 -425 -410 -709 -14 -114 -13 -193
6 -315 8 -58 14 -107 12 -109 -2 -1 -59 0 -126 5 -109 6 -124 10 -147 31 -15
14 -43 26 -67 29 -33 5 -46 12 -55 31 -20 43 -7 66 43 77 40 9 46 8 59 -10 13
-18 18 -19 41 -8 25 11 26 14 20 62 -5 37 -4 49 4 44 7 -4 29 9 51 31 33 33
39 44 39 81 0 40 -2 43 -28 43 -17 0 -64 -23 -118 -56 -49 -31 -95 -59 -101
-61 -10 -4 -13 24 -13 121 l0 126 24 0 c34 0 56 10 56 24 0 7 33 44 72 81 218
207 219 207 212 227 -3 10 -10 18 -15 16 -4 -2 -47 -38 -93 -81 -85 -77 -148
-114 -218 -127 -34 -7 -36 -5 -42 23 -15 76 -7 120 40 210 25 49 51 86 57 84
7 -2 12 -21 12 -43 1 -48 10 -64 37 -64 43 0 637 329 616 341 -7 3 -77 12
-156 19 -79 7 -139 16 -135 21 13 12 180 68 297 99 246 65 414 89 1246 180
256 28 495 58 531 66 75 17 197 84 259 143 34 32 50 39 96 45 95 11 194 58
461 219 142 85 392 225 556 312 292 154 298 158 292 185 l-6 27 134 37 c215
59 477 106 707 126 129 11 714 5 905 -10z m894 11 c27 -7 71 -91 48 -91 -20 0
-301 41 -317 47 -11 4 -8 8 10 15 77 32 200 46 259 29z m-605 -197 c176 -29
517 -96 631 -125 246 -62 798 -284 812 -326 7 -19 -62 -87 -112 -112 -25 -13
-74 -27 -108 -32 -67 -9 -1661 -64 -1688 -58 -17 4 -2 60 165 633 l17 58 67
-7 c37 -4 134 -18 216 -31z m-2071 -5 c-4 -4 -96 -53 -203 -109 -288 -151
-390 -208 -652 -366 -299 -179 -387 -213 -513 -198 -90 12 -84 23 13 24 l93 0
187 109 c311 181 681 390 766 433 160 81 351 147 309 107z m4391 -364 c-14
-19 -29 -35 -32 -35 -3 0 -44 12 -91 28 l-85 27 80 6 c43 3 96 6 117 7 l38 2
-27 -35z m909 -322 c-3 -38 -7 -69 -8 -71 -1 -2 -19 7 -39 19 -35 20 -45 21
-163 14 -83 -4 -123 -3 -119 3 9 16 59 30 179 51 60 11 119 27 130 35 12 8 23
15 23 15 1 1 -1 -29 -3 -66z m-6819 18 c3 -5 -16 -11 -42 -15 -67 -8 -1181
-116 -1195 -115 -7 0 17 14 53 31 78 36 172 47 725 82 422 28 452 29 459 17z
m135 -40 c17 -11 -91 -90 -172 -125 -76 -34 -103 -38 -722 -106 -302 -34 -615
-70 -695 -81 -278 -39 -524 -99 -700 -172 -94 -39 -228 -87 -241 -87 -4 0 -12
15 -18 32 -15 41 -10 45 169 137 150 77 274 125 435 171 241 67 375 87 1030
150 347 34 682 67 745 74 147 17 152 17 169 7z m6651 -81 c70 -55 85 -91 85
-202 0 -58 -4 -101 -11 -108 -7 -7 -56 -12 -121 -13 l-109 -2 -85 42 c-82 41
-206 140 -230 185 -14 27 10 61 69 99 46 29 46 29 205 29 l159 0 38 -30z
m-3565 -219 c13 -99 -19 -243 -121 -528 -59 -166 -222 -583 -233 -595 -3 -4
-301 -16 -661 -27 -360 -11 -962 -31 -1338 -43 -566 -18 -685 -20 -691 -9 -5
7 -18 61 -29 120 -59 298 -89 710 -62 851 6 30 11 55 13 56 4 4 1327 105 1942
149 275 19 617 44 760 54 143 10 294 19 337 20 l76 1 7 -49z m-5665 -257 c6
-14 10 -27 10 -28 0 -10 -112 -47 -131 -44 -21 3 -16 9 36 50 33 27 63 48 68
48 4 0 12 -12 17 -26z m430 -33 l35 -7 -128 -73 c-71 -40 -189 -104 -263 -143
l-134 -70 0 44 c0 24 -5 49 -12 56 -20 20 -65 14 -82 -10 -15 -21 -16 -20 -16
32 0 85 7 100 40 94 18 -4 63 8 141 39 63 25 123 47 134 50 25 7 238 -2 285
-12z m7230 -35 c94 -20 215 -69 290 -118 89 -57 218 -189 257 -263 54 -102 91
-256 117 -487 l6 -48 -54 0 -53 0 -1 143 c0 164 -19 256 -77 373 -99 202 -370
362 -645 381 -308 21 -632 -197 -735 -494 -55 -158 -51 -362 11 -566 5 -16 -1
-18 -68 -15 l-73 3 -3 70 c-5 98 16 284 43 391 49 193 113 314 224 424 105
104 227 164 412 205 84 18 267 18 349 1z m-6313 -20 c282 -60 454 -206 568
-481 63 -152 117 -381 131 -557 l7 -88 -35 0 c-19 0 -75 3 -124 6 l-90 7 23
67 c72 216 68 450 -11 615 -118 247 -364 405 -631 405 -344 0 -665 -244 -730
-555 -29 -140 -13 -325 43 -484 l29 -81 -91 0 -92 0 -13 -36 c-7 -19 -15 -33
-17 -31 -15 14 -24 273 -14 387 23 280 93 456 239 600 138 137 292 209 526
244 51 8 207 -2 282 -18z m6312 -62 c221 -63 391 -192 465 -355 49 -106 61
-173 61 -334 -1 -145 -2 -153 -32 -228 -44 -109 -83 -166 -168 -244 -89 -84
-160 -127 -267 -164 -242 -83 -463 -58 -660 73 -91 62 -205 175 -232 233 -42
88 -59 186 -60 335 0 132 2 152 27 226 81 242 312 437 575 484 70 13 194 2
291 -26z m-6351 -10 c243 -49 453 -246 518 -485 27 -100 23 -278 -9 -399 -45
-167 -65 -198 -196 -302 -285 -227 -645 -236 -922 -22 -83 64 -125 118 -158
203 -48 126 -66 223 -65 351 1 178 49 300 167 427 105 112 259 197 417 228 89
18 157 18 248 -1z m8148 -535 c-4 -29 -16 -69 -27 -90 -11 -22 -17 -39 -14
-39 3 0 1 -9 -5 -20 -12 -22 -30 -27 -30 -8 0 14 73 208 79 208 2 0 1 -23 -3
-51z m-2854 -321 c-2 -79 -7 -146 -10 -149 -8 -6 -4493 -51 -4499 -45 -7 6
-23 189 -18 194 9 10 2670 96 3445 113 278 6 586 14 685 18 99 4 230 9 290 9
l110 2 -3 -142z"/>
        <path d="M6355 7339 c-327 -17 -551 -51 -727 -110 -179 -60 -431 -186 -633
-317 -79 -51 -111 -66 -156 -72 -85 -12 -123 -40 -153 -112 -12 -29 -38 -51
-133 -113 -113 -74 -183 -130 -183 -147 0 -4 93 -8 208 -7 199 1 205 2 147 15
-84 19 -128 32 -144 43 -20 13 1 38 40 46 31 7 64 55 90 128 30 86 144 142
205 102 44 -28 59 -78 58 -192 -1 -57 0 -103 1 -103 1 0 429 25 951 55 522 30
950 55 951 55 1 0 55 161 119 358 64 196 119 363 122 370 3 9 -61 12 -304 11
-170 -1 -376 -6 -459 -10z m715 -25 c0 -12 -212 -659 -219 -666 -5 -6 -1700
-108 -1798 -108 l-40 0 -5 98 c-5 97 -19 144 -52 171 -9 8 -16 17 -16 21 0 11
199 133 331 203 357 191 610 252 1156 276 211 10 643 13 643 5z m-2434 -702
c-3 -5 -16 -12 -28 -15 -22 -6 -22 -6 2 13 25 19 37 20 26 2z m-99 -87 c1 -35
1 -35 -43 -35 -24 0 -44 3 -44 8 0 5 73 58 86 62 0 0 0 -16 1 -35z"/>
        <path d="M10127 7136 c-51 -19 -67 -34 -67 -66 0 -35 31 -62 66 -58 52 6 100
116 58 132 -9 3 -16 6 -17 6 -1 -1 -19 -7 -40 -14z m28 -55 c-19 -38 -32 -46
-50 -31 -21 18 -19 27 13 44 44 25 55 21 37 -13z"/>
        <path d="M10166 6978 c-42 -86 -76 -159 -76 -162 0 -3 26 -6 58 -6 l58 0 48
66 c26 36 49 71 52 78 2 6 -11 49 -30 96 l-35 85 -75 -157z m94 16 c11 -33 10
-37 -29 -89 -31 -41 -48 -55 -66 -55 -25 0 -25 0 22 94 26 52 50 93 54 90 4
-2 13 -20 19 -40z"/>
        <path d="M9926 6985 c-55 -65 -73 -102 -63 -128 6 -16 72 -27 153 -27 l54 0
25 50 c24 47 24 52 11 79 -29 56 -66 91 -96 91 -23 0 -40 -13 -84 -65z m128
-13 l29 -41 -19 -36 c-20 -38 -25 -39 -111 -29 -33 4 -53 12 -53 20 0 19 101
135 114 131 6 -2 24 -22 40 -45z"/>
        <path d="M10343 6958 c-55 -62 -70 -119 -35 -136 9 -5 56 -12 103 -16 74 -5
88 -4 101 12 25 28 48 79 48 106 0 53 -5 56 -104 56 -83 0 -95 -2 -113 -22z
m183 -22 c3 -7 -3 -31 -13 -52 -17 -38 -20 -39 -73 -42 -61 -4 -120 5 -120 17
0 4 14 27 30 49 l30 42 70 0 c51 0 72 -4 76 -14z"/>
        <path d="M8810 6099 c-213 -27 -415 -128 -544 -271 -47 -51 -54 -63 -41 -71
13 -7 30 6 76 57 252 275 727 341 1108 155 208 -102 391 -373 493 -729 18 -63
33 -116 34 -118 1 -2 182 19 401 47 219 28 404 51 411 51 6 0 12 9 12 20 0 16
-5 19 -22 15 -27 -6 -739 -95 -762 -95 -10 0 -19 15 -26 43 -64 254 -186 498
-323 644 -185 197 -497 293 -817 252z"/>
        <path id="roda-direita" d="M8771 5764 c-178 -48 -331 -193 -393 -372 -19 -55 -23 -88 -23 -182
0 -94 4 -127 23 -182 31 -89 85 -171 161 -240 192 -178 490 -198 709 -49 249
169 321 506 165 770 -71 119 -206 221 -338 256 -74 19 -232 19 -304 -1z m236
-22 c9 -6 2 -44 -29 -154 -40 -141 -42 -146 -70 -150 -25 -4 -37 6 -116 101
-140 168 -129 148 -85 166 70 30 137 44 213 44 41 0 81 -3 87 -7z m147 -47
c39 -19 84 -45 101 -58 l29 -25 -83 -126 -84 -126 -35 27 c-19 14 -49 31 -67
37 -17 6 -32 15 -34 19 -2 4 13 71 35 147 26 95 43 140 53 140 8 0 46 -16 85
-35z m-406 -158 l90 -109 -52 -51 c-28 -29 -55 -60 -61 -69 -9 -15 -26 -5
-135 73 -69 50 -126 97 -128 105 -2 8 35 54 83 101 74 74 88 84 100 72 7 -8
54 -63 103 -122z m619 -25 c43 -64 78 -146 84 -197 l4 -30 -152 -3 -152 -3 -7
25 c-4 19 12 51 78 150 46 69 88 124 93 123 6 -2 29 -31 52 -65z m-782 -169
c78 -55 124 -94 122 -103 -3 -17 -304 -127 -315 -115 -4 4 -7 43 -7 88 1 99
37 232 61 223 8 -3 71 -45 139 -93z m427 47 c18 0 90 -76 104 -108 69 -165
-118 -330 -273 -242 -117 65 -135 216 -38 310 41 39 112 61 165 49 19 -5 38
-9 42 -9z m445 -222 c-5 -76 -29 -172 -45 -182 -4 -2 -65 22 -137 54 -86 39
-129 63 -126 72 2 7 6 36 8 63 2 28 6 56 8 63 3 9 42 12 151 12 l147 0 -6 -82z
m-747 -5 c0 -9 14 -41 31 -71 17 -30 29 -55 27 -56 -2 -2 -60 -41 -131 -89
l-127 -86 -35 53 c-39 57 -80 155 -70 165 8 7 275 99 293 100 6 1 12 -7 12
-16z m570 -163 c52 -23 99 -45 104 -50 11 -11 -51 -96 -100 -140 -52 -45 -115
-83 -124 -73 -4 4 -24 70 -45 146 l-38 138 23 24 c26 27 7 32 180 -45z m-444
-158 c-4 -86 -9 -158 -11 -160 -2 -2 -33 6 -69 18 -67 22 -167 81 -199 118
-19 20 -18 21 115 110 178 119 173 122 164 -86z m214 151 c0 -5 18 -70 39
-146 l39 -137 -57 -17 c-31 -9 -90 -17 -131 -17 l-75 -1 3 115 c2 63 5 132 8
153 l6 37 51 1 c29 0 61 4 72 9 26 11 45 12 45 3z"/>
        <path id="roda-direita" d="M8896 5244 c-34 -34 -11 -84 39 -84 35 0 55 20 55 54 0 22 -28 46
-55 46 -13 0 -31 -7 -39 -16z"/>
        <path id="roda-esquerda" d="M2538 5760 c-128 -23 -228 -79 -320 -178 -274 -297 -141 -784 247
-905 97 -30 233 -30 330 0 388 121 521 608 247 905 -70 76 -155 132 -239 158
-75 23 -198 32 -265 20z m182 -42 c0 -7 -17 -74 -39 -148 l-38 -135 -31 0
c-28 0 -42 13 -127 115 -52 63 -95 118 -95 121 0 8 73 38 122 49 57 14 208 12
208 -2z m190 -68 c26 -17 53 -37 59 -44 8 -9 -10 -43 -73 -134 l-83 -121 -23
24 c-13 13 -43 32 -67 41 -31 12 -42 21 -39 33 3 9 19 66 36 126 17 61 33 118
36 127 5 16 8 16 55 -1 27 -11 72 -33 99 -51z m-470 -102 c122 -147 116 -133
75 -157 -30 -17 -67 -63 -78 -96 -2 -5 -57 29 -122 75 -65 47 -123 88 -128 91
-16 11 28 72 94 133 33 31 63 56 67 56 4 0 46 -46 92 -102z m632 -62 c32 -50
78 -166 78 -197 0 -5 -67 -9 -149 -9 -195 0 -193 -3 -80 166 94 140 87 138
151 40z m-774 -146 c71 -50 122 -92 122 -102 0 -12 -34 -28 -142 -64 -79 -26
-149 -49 -155 -52 -10 -3 -13 18 -13 86 0 99 31 226 54 220 7 -2 67 -41 134
-88z m395 49 c162 -45 183 -276 32 -349 -190 -92 -364 151 -215 300 53 53 112
69 183 49z m457 -203 c0 -61 -33 -196 -48 -196 -4 0 -64 25 -134 56 -122 55
-126 57 -117 81 5 13 9 44 9 68 l0 44 63 4 c34 2 99 4 145 5 l82 2 0 -64z
m-725 -36 c4 -16 18 -46 31 -66 30 -44 38 -34 -113 -137 l-113 -76 -24 32
c-27 35 -72 129 -78 161 -2 15 19 26 132 66 74 27 140 49 147 49 6 1 14 -12
18 -29z m538 -140 c67 -30 117 -58 117 -66 0 -21 -133 -156 -178 -182 l-41
-23 -20 68 c-11 37 -29 102 -40 143 l-21 74 22 23 c12 13 27 22 33 19 5 -2 63
-27 128 -56z m-429 4 c18 -7 20 -40 9 -208 l-6 -108 -36 6 c-54 8 -171 70
-210 109 l-33 35 128 86 c71 47 130 86 131 86 1 0 8 -3 17 -6z m250 -134 c20
-68 36 -132 36 -142 0 -29 -116 -54 -223 -49 l-28 1 6 118 c9 177 11 184 43
178 15 -4 50 0 77 7 28 7 51 13 52 13 1 -1 17 -57 37 -126z"/>
        <path id="roda-esquerda" d="M2606 5244 c-19 -18 -21 -55 -4 -72 7 -7 24 -12 38 -12 34 0 50 17
50 52 0 43 -53 64 -84 32z"/>
    </g>
</svg>
