<?xml version="1.0" standalone="no"?>
<!DOCTYPE svg PUBLIC "-//W3C//DTD SVG 20010904//EN"
        "http://www.w3.org/TR/2001/REC-SVG-20010904/DTD/svg10.dtd">
<svg version="1.0" xmlns="http://www.w3.org/2000/svg"
     width="640.000000pt" height="640.000000pt" viewBox="0 0 640.000000 640.000000"
     preserveAspectRatio="xMidYMid meet">

    <g transform="translate(0.000000,640.000000) scale(0.100000,-0.100000)"
       fill="#000000" stroke="none">
        <path d="M2547 5554 c-4 -4 -57 -8 -119 -9 -132 -2 -196 -22 -277 -86 -55 -44
-126 -142 -136 -189 l-7 -30 -106 0 c-85 0 -114 -4 -146 -20 -47 -23 -81 -69
-90 -122 l-7 -36 -297 -4 c-275 -3 -300 -5 -342 -24 -60 -28 -117 -86 -146
-148 l-24 -51 0 -1890 0 -1890 24 -50 c13 -29 44 -69 70 -92 89 -78 -18 -73
1464 -73 923 0 1336 3 1361 11 82 25 170 111 191 189 l11 40 663 0 c564 0 670
2 714 15 68 20 151 96 183 167 l24 53 0 2000 c0 1943 -1 2001 -19 2049 -24 63
-86 130 -151 164 l-50 27 -1391 3 c-765 1 -1393 -1 -1397 -4z m-29 -241 c56
-32 90 -85 103 -161 8 -43 19 -69 36 -87 25 -24 30 -25 159 -25 l134 0 0 -115
0 -115 -540 0 -540 0 0 115 0 115 131 0 c129 0 131 0 158 28 19 19 31 45 39
87 14 71 38 113 84 149 67 50 158 54 236 9z m2803 8 l29 -29 0 -1966 c0 -1448
-3 -1972 -11 -1990 -26 -57 -19 -56 -723 -56 l-646 0 -2 1788 -3 1787 -22 41
c-28 53 -114 130 -161 145 -24 8 -146 14 -334 16 l-298 5 0 32 c0 38 -32 89
-73 120 -24 18 -45 21 -147 24 l-118 4 -18 46 c-11 26 -20 50 -22 54 -2 5 564
8 1258 8 l1262 0 29 -29z m-3658 -531 c10 -93 44 -143 119 -175 32 -13 117
-15 630 -15 555 0 596 2 633 19 75 34 105 85 105 177 l0 55 285 -3 c281 -3
285 -3 307 -26 l23 -23 2 -1832 c2 -1316 0 -1841 -8 -1865 -22 -65 53 -62
-1349 -62 -1385 0 -1328 -2 -1350 55 -7 18 -9 656 -8 1867 l3 1840 28 24 28
24 273 0 273 0 6 -60z"/>
        <path d="M2449 3821 c-23 -23 -29 -38 -29 -71 0 -33 6 -48 29 -71 l29 -29 431
0 c300 0 438 3 455 11 33 16 58 68 50 108 -4 17 -20 43 -36 56 l-30 25 -435 0
-435 0 -29 -29z"/>
        <path d="M1443 3250 c-34 -20 -53 -66 -45 -107 8 -41 49 -71 105 -78 29 -3
455 -5 947 -3 986 3 924 -1 956 66 18 39 7 87 -27 118 -20 18 -59 19 -963 22
-920 2 -942 2 -973 -18z"/>
        <path d="M2500 2243 c-43 -8 -80 -52 -80 -96 0 -51 15 -76 55 -93 50 -21 870
-21 920 0 40 17 55 42 55 94 0 45 -28 77 -81 92 -33 10 -817 12 -869 3z"/>
        <path d="M1443 1650 c-34 -20 -53 -66 -45 -107 8 -41 49 -71 105 -78 29 -3
455 -5 947 -3 986 3 924 -1 956 66 18 39 7 87 -27 118 -20 18 -59 19 -963 22
-920 2 -942 2 -973 -18z"/>
    </g>
</svg>
