<?xml version="1.0" standalone="no"?>
<!DOCTYPE svg PUBLIC "-//W3C//DTD SVG 20010904//EN"
 "http://www.w3.org/TR/2001/REC-SVG-20010904/DTD/svg10.dtd">
<svg version="1.0" xmlns="http://www.w3.org/2000/svg"
 width="512.000000pt" height="512.000000pt" viewBox="0 0 512.000000 512.000000"
 preserveAspectRatio="xMidYMid meet">

<g transform="translate(0.000000,512.000000) scale(0.100000,-0.100000)"
fill="#000000" stroke="none">
<path d="M4703 5106 c-22 -7 -56 -24 -75 -36 -18 -13 -498 -487 -1066 -1054
l-1034 -1031 -164 -327 c-90 -181 -164 -337 -164 -348 0 -53 57 -110 110 -110
11 0 167 74 348 164 l327 164 1041 1044 c840 842 1046 1053 1065 1093 34 72
33 190 -1 260 -31 64 -101 134 -164 164 -59 29 -162 37 -223 17z m158 -227
c15 -11 33 -35 39 -54 17 -51 -3 -84 -135 -215 l-115 -115 -77 78 -78 77 115
115 c63 63 128 121 145 130 34 17 67 12 106 -16z m-441 -464 l75 -75 -815
-816 -815 -815 -158 -80 -157 -79 76 152 76 153 816 818 c449 449 819 817 822
817 3 0 39 -34 80 -75z"/>
<path d="M0 2345 l0 -2345 1975 0 1975 0 0 1286 c0 1425 4 1335 -65 1368 -41
20 -49 20 -90 0 -69 -32 -65 46 -65 -1263 l0 -1181 -1757 2 -1758 3 -3 2133
-2 2132 1461 0 1461 0 34 34 c37 37 44 74 22 121 -26 58 69 55 -1628 55
l-1560 0 0 -2345z"/>
<path d="M1085 4228 c-53 -29 -55 -37 -55 -275 l0 -223 -211 0 c-230 0 -263
-6 -290 -56 -16 -30 -15 -83 1 -114 23 -43 64 -50 290 -50 l210 0 0 -223 c0
-213 1 -224 21 -246 48 -51 120 -51 163 0 l26 31 0 218 0 219 226 3 226 3 29
33 c40 45 40 99 0 144 l-29 33 -226 3 -226 3 0 221 0 220 -34 34 c-36 36 -81
44 -121 22z"/>
</g>
</svg>
