<?xml version="1.0" standalone="no"?>
<!DOCTYPE svg PUBLIC "-//W3C//DTD SVG 20010904//EN"
 "http://www.w3.org/TR/2001/REC-SVG-20010904/DTD/svg10.dtd">
<svg version="1.0" xmlns="http://www.w3.org/2000/svg"
 width="1800.000000pt" height="1200.000000pt" viewBox="0 0 1800.000000 1200.000000"
 preserveAspectRatio="xMidYMid meet">

<g transform="translate(0.000000,1200.000000) scale(0.100000,-0.100000)"
fill="#000000" stroke="none">
<path d="M3917 7783 c-16 -4 -17 -70 -15 -1256 l3 -1252 1770 0 1770 0 3 1253
c1 688 1 1252 0 1253 -10 4 -3517 6 -3531 2z m3073 -369 c7 -7 9 -313 8 -885
l-3 -874 -1317 -3 c-1051 -2 -1318 0 -1319 10 0 7 -1 402 -2 877 -2 735 0 867
12 879 12 12 201 13 1313 10 845 -3 1302 -8 1308 -14z"/>
<path d="M5200 6527 c0 -551 2 -615 16 -621 31 -12 239 -7 257 7 15 10 17 40
19 237 l3 225 36 3 c21 2 40 -2 46 -10 13 -15 104 -174 166 -288 22 -41 48
-87 59 -102 10 -14 18 -31 18 -36 0 -6 10 -18 22 -26 18 -13 52 -16 165 -16
88 0 144 4 148 10 4 6 -42 88 -101 183 -59 95 -129 207 -156 251 -27 43 -48
79 -46 80 2 2 26 15 53 31 94 52 151 122 179 217 20 70 20 120 1 194 -32 125
-101 194 -240 241 -78 26 -88 27 -362 31 l-283 4 0 -615z m518 384 c116 -60
106 -265 -14 -316 -40 -17 -155 -29 -189 -21 l-25 6 0 174 c0 95 3 176 8 180
4 5 45 6 92 4 62 -3 97 -10 128 -27z"/>
<path d="M13798 7348 c-8 -13 -24 -43 -35 -68 -25 -53 -155 -322 -260 -540
-42 -85 -103 -211 -135 -280 -33 -69 -88 -183 -123 -255 -158 -328 -205 -426
-205 -431 0 -5 146 -75 198 -95 22 -9 27 -1 98 149 42 86 97 202 124 257 50
103 160 331 257 535 30 63 83 174 118 245 156 323 185 385 185 397 0 10 -111
69 -200 106 -4 1 -14 -8 -22 -20z"/>
<path d="M11460 7030 c0 -148 -4 -230 -10 -230 -6 0 -28 13 -50 29 -80 58
-210 66 -312 18 -97 -45 -178 -151 -219 -287 -19 -61 -19 -346 -1 -415 38
-142 105 -235 198 -277 38 -17 67 -22 134 -22 102 0 162 23 227 86 24 23 44
40 46 37 2 -2 8 -24 13 -49 l9 -45 120 0 120 0 0 680 0 680 -100 12 c-55 6
-117 12 -137 12 l-38 1 0 -230z m-80 -377 c14 -9 37 -27 53 -41 l27 -26 0
-211 0 -211 -35 -41 c-47 -55 -111 -80 -163 -65 -77 23 -111 97 -119 259 -12
219 54 353 172 353 22 0 52 -7 65 -17z"/>
<path d="M9124 7170 c-192 -28 -352 -149 -436 -330 -41 -87 -58 -186 -58 -331
0 -131 4 -163 31 -259 56 -197 205 -343 399 -391 79 -20 260 -17 335 5 99 30
235 118 235 153 0 7 -27 47 -60 88 l-61 74 -73 -45 c-130 -80 -263 -84 -364
-11 -114 81 -168 311 -126 534 18 98 31 133 73 190 93 128 270 143 433 37 30
-20 23 -25 110 79 32 37 55 73 52 80 -6 18 -100 74 -162 97 -50 19 -190 41
-247 39 -16 -1 -53 -5 -81 -9z"/>
<path d="M14307 6938 c-18 -29 -46 -74 -61 -100 l-28 -48 32 -17 c17 -10 73
-42 123 -72 51 -29 167 -96 260 -148 92 -52 167 -101 167 -107 0 -7 -12 -18
-26 -25 -32 -14 -536 -310 -547 -321 -9 -8 31 -76 66 -114 9 -11 17 -25 17
-31 0 -7 9 -20 19 -29 25 -22 7 -32 410 219 l321 200 -2 105 -3 105 -100 63
c-55 34 -136 84 -180 111 -44 27 -136 83 -205 126 -154 95 -220 135 -225 135
-2 0 -19 -24 -38 -52z"/>
<path d="M8135 6892 c-77 -49 -229 -143 -337 -211 -109 -67 -202 -131 -208
-141 -11 -20 -14 -141 -4 -175 5 -20 69 -63 379 -255 83 -51 185 -115 227
-142 49 -32 85 -48 100 -46 16 2 38 27 76 87 29 47 51 90 49 95 -2 6 -131 84
-288 174 -156 89 -285 166 -286 170 -1 4 86 59 195 122 319 185 382 223 382
232 0 5 -24 46 -52 93 -38 60 -59 84 -73 84 -11 0 -83 -39 -160 -87z"/>
<path d="M10093 6866 c-186 -45 -303 -184 -340 -404 -16 -95 -16 -106 0 -207
29 -184 104 -298 237 -363 136 -66 328 -66 458 0 153 77 242 251 242 471 -2
318 -190 520 -484 516 -33 0 -84 -6 -113 -13z m183 -211 c41 -17 54 -29 76
-70 31 -57 38 -98 38 -224 0 -127 -9 -176 -43 -239 -20 -37 -83 -71 -130 -72
-67 0 -129 51 -157 130 -21 61 -24 245 -6 324 32 136 118 195 222 151z"/>
<path d="M12315 6865 c-113 -29 -193 -84 -256 -177 -93 -137 -120 -336 -71
-518 64 -239 311 -369 602 -316 88 16 212 69 245 105 17 20 17 22 -31 85 -27
36 -54 68 -61 70 -7 3 -38 -6 -68 -20 -164 -75 -327 -47 -384 66 -32 63 -42
103 -28 112 6 5 145 8 308 7 163 -1 301 1 307 5 15 9 16 167 1 238 -18 87 -75
193 -133 245 -108 97 -281 137 -431 98z m207 -196 c46 -25 87 -115 88 -191 l0
-28 -180 0 c-203 0 -192 -5 -166 81 28 92 59 129 125 150 29 9 107 2 133 -12z"/>
<path d="M4362 4818 l3 -183 1305 0 1305 0 3 183 2 182 -1310 0 -1310 0 2
-182z"/>
</g>
</svg>
