<svg version="1.0" xmlns="http://www.w3.org/2000/svg"
 width="100.000000pt" height="101.000000pt" viewBox="0 0 100.000000 101.000000"
 preserveAspectRatio="xMidYMid meet">

<g transform="translate(0.000000,101.000000) scale(0.100000,-0.100000)">
<path d="M95 994 c-46 -24 -74 -54 -86 -93 -6 -23 -9 -172 -7 -413 3 -362 4
-378 24 -404 11 -15 33 -37 48 -48 27 -20 39 -21 424 -21 l397 0 34 24 c69 49
71 63 71 471 0 360 0 367 -23 410 -14 30 -36 53 -62 67 -39 22 -45 23 -415 23
-320 0 -379 -2 -405 -16z m804 -22 c19 -9 44 -30 55 -45 20 -27 21 -42 24
-405 3 -421 2 -423 -67 -469 -30 -20 -46 -23 -142 -23 l-108 0 15 36 c13 31
13 39 0 65 -14 29 -14 29 15 29 34 0 85 23 92 42 3 7 6 -5 6 -27 1 -22 8 -50
16 -62 32 -45 113 -36 135 16 7 19 10 141 8 400 l-3 373 -24 19 c-54 44 -130
5 -132 -68 0 -21 -3 -32 -6 -25 -14 36 -57 42 -292 42 l-229 0 -31 -26 -31
-26 0 37 c0 85 -107 118 -145 44 -12 -23 -15 -92 -15 -394 l0 -367 29 -29 c56
-56 131 -21 131 61 l0 42 31 -26 c17 -14 42 -26 55 -26 21 0 23 -3 14 -19 -15
-28 -12 -63 6 -90 l16 -23 -110 4 c-102 3 -113 5 -137 28 -55 52 -55 49 -55
452 0 355 1 375 20 406 11 18 34 41 52 52 31 19 51 20 403 20 333 0 373 -2
404 -18z m-737 -69 c17 -15 18 -41 18 -394 l0 -378 -22 -15 c-30 -21 -54 -20
-78 4 -19 19 -20 33 -20 390 0 357 1 371 20 390 24 24 57 26 82 3z m748 -3
c19 -19 20 -33 20 -390 0 -357 -1 -371 -20 -390 -11 -11 -29 -20 -40 -20 -11
0 -29 9 -40 20 -19 19 -20 33 -20 392 0 332 2 373 17 390 21 24 58 23 83 -2z
m-155 -75 c25 -24 25 -25 25 -232 l0 -208 -267 3 c-176 2 -270 -1 -277 -8 -5
-5 -14 -10 -18 -10 -13 0 -10 408 4 433 23 45 32 46 276 47 l233 0 24 -25z
m-11 -455 c34 -12 44 -54 21 -80 -17 -19 -33 -20 -266 -20 l-249 0 -17 26
c-19 30 -11 51 28 71 29 15 444 18 483 3z m-239 -120 c182 0 254 3 263 12 9 9
12 7 12 -10 0 -13 -11 -34 -25 -47 l-24 -25 -233 0 c-167 1 -237 4 -249 13
-20 15 -39 51 -39 72 0 15 2 15 22 1 19 -14 62 -16 273 -16z m146 -119 c24
-30 24 -46 -1 -71 -18 -18 -33 -20 -162 -20 -156 0 -178 7 -178 60 0 52 24 59
193 57 122 -2 130 -3 148 -26z"/>
</g>
</svg>
