<svg version="1.1" id="Layer_1" xmlns="http://www.w3.org/2000/svg" xmlns:xlink="http://www.w3.org/1999/xlink" x="0px" y="0px"
	 width="100%" viewBox="0 0 294 600" enable-background="new 0 0 294 600" xml:space="preserve">
<path fill="none" opacity="1.000000" stroke="#000000" stroke-linecap="round" stroke-linejoin="round" stroke-width="4.000000"
	d="
M256.000000,227.500000 
	C254.710754,229.340683 255.009460,231.449478 255.004196,233.500015 
	C254.991348,238.499985 254.872467,243.504120 255.033691,248.498917 
	C255.217117,254.181259 254.045700,259.838043 258.295410,265.163269 
	C261.391754,269.043213 259.973297,274.721741 259.342133,279.479065 
	C258.738007,284.032318 259.078766,288.780121 256.217346,293.142578 
	C254.664810,295.509521 255.051575,299.332642 255.043808,302.500122 
	C254.970245,332.499939 254.988525,362.500031 255.033554,392.499939 
	C255.035828,394.015991 254.576080,395.538116 255.946640,397.048431 
	C260.962219,402.575256 260.069977,409.476746 259.350311,415.983429 
	C258.841400,420.584137 259.289215,425.730194 255.497650,429.497650 
	C254.438705,430.549927 255.042419,431.845764 255.033173,433.000275 
	C254.862488,454.263977 252.902344,475.399048 250.456390,496.494934 
	C250.104340,499.531433 249.332123,502.550110 248.443878,505.483002 
	C247.815338,507.558380 247.414474,509.743408 243.996994,509.689178 
	C241.507385,509.649658 239.379333,512.645935 238.694458,514.569275 
	C235.151749,524.518066 227.216995,527.255005 218.002518,528.518311 
	C200.229050,530.955078 182.499252,533.419128 164.513535,534.282166 
	C155.332062,534.722717 146.130753,535.246033 137.006989,534.842224 
	C121.458481,534.153992 105.848991,533.618530 90.492271,530.538513 
	C86.710770,529.780090 82.846672,529.267639 78.997330,529.046570 
	C69.962868,528.527710 64.278183,522.966370 60.176537,515.897583 
	C58.109467,512.335205 56.059959,510.004425 52.002983,509.477051 
	C49.474628,509.148376 48.485947,507.557404 47.917347,505.018524 
	C45.921318,496.105927 45.053406,487.063110 44.549553,477.997253 
	C43.698334,462.681305 43.209698,447.347443 43.465969,431.999420 
	C43.482376,431.016846 43.699753,430.056946 43.056145,428.966858 
	C39.041157,422.166565 38.874302,414.576172 39.068115,407.001740 
	C39.123844,404.823730 39.346493,402.104034 40.630600,400.612427 
	C43.680180,397.070282 43.511818,393.112640 43.509407,389.000000 
	C43.491898,359.166656 43.511726,329.333313 43.465298,299.500061 
	C43.462978,298.011353 43.902973,296.514526 43.036610,294.979340 
	C39.175743,288.137817 38.988400,280.579254 38.996021,273.000000 
	C38.998821,270.214966 39.696774,267.627441 41.524422,265.521179 
	C43.591366,263.139160 43.868755,260.333923 43.455517,257.506500 
	C42.332233,249.820892 43.828644,242.163712 43.468571,234.501480 
	C43.327164,231.492462 42.833332,228.500000 42.500000,225.500000 
"/>
<path fill="none" opacity="1.000000" stroke="#000000" stroke-linecap="round" stroke-linejoin="round" stroke-width="4.000000"
	d="
M256.500000,225.500000 
	C256.922211,229.394974 261.145905,228.715576 263.290802,230.682968 
	C264.918213,232.175751 267.929230,233.505249 270.511627,234.468842 
	C272.685333,235.279968 274.872559,235.570312 277.020325,234.028305 
	C279.465881,232.272522 278.629425,229.991074 277.942139,228.020172 
	C275.213654,220.195404 270.838165,213.632507 262.997345,210.005768 
	C262.183868,209.629486 261.258850,208.927338 260.511810,209.064423 
	C254.698105,210.131058 254.928711,206.534561 254.949509,202.499741 
	C255.057816,181.500305 255.400116,160.489044 254.825714,139.504776 
	C254.551819,129.498749 252.384949,119.616875 249.106354,109.963875 
	C243.452530,93.317688 233.233246,80.161499 220.049606,68.941719 
	C218.482574,67.608109 216.775620,66.828758 214.990372,66.565285 
	C202.370224,64.702713 189.826904,62.268547 177.001358,61.946201 
	C168.327591,61.728207 159.670135,60.686764 150.998993,60.590843 
	C142.837006,60.500553 134.656662,61.011112 126.502296,61.535690 
	C113.597710,62.365852 100.773132,63.802170 87.954720,65.693024 
	C81.933708,66.581192 77.937050,69.584373 74.077652,73.085602 
	C61.834259,84.192749 52.769241,97.636536 48.123184,113.535995 
	C44.286076,126.667122 42.820911,140.173309 43.342850,154.005936 
	C43.882679,168.312607 43.280930,182.669525 42.924061,196.998108 
	C42.828281,200.843933 44.356285,204.666672 42.998047,208.648102 
	C32.633667,209.715576 25.409353,214.922379 21.994848,224.998260 
	C21.000511,227.932434 17.930662,230.960983 21.079391,233.915390 
	C24.360025,236.993530 27.802210,234.195984 30.982922,232.956177 
	C34.801579,231.467712 37.946606,228.559875 42.000000,227.500000 
"/>
<path fill="none" opacity="1.000000" stroke="#000000" stroke-linecap="round" stroke-linejoin="round" stroke-width="3.000000"
	d="
M195.500000,188.500000 
	C204.810410,192.063522 213.079102,197.668549 221.983994,202.032669 
	C227.404083,204.688965 232.575012,207.862122 238.036072,210.423096 
	C241.072037,211.846802 241.812195,213.965134 242.047058,216.996353 
	C244.329514,246.456299 244.879410,275.951233 245.175140,305.498260 
	C245.693954,357.334686 245.394241,409.167389 245.331650,460.999786 
	C245.318146,472.167847 243.012360,483.320892 242.110062,494.508881 
	C241.888504,497.255768 240.198837,497.783508 238.486084,498.464996 
	C214.986557,507.814728 190.261551,512.145935 165.539825,516.715454 
	C157.886856,518.130005 151.209518,517.008484 143.955597,515.175781 
	C130.595688,511.800323 117.315880,507.844421 103.504883,506.451569 
	C102.135056,506.313446 100.833336,505.500000 99.500000,505.000000 
"/>
<path fill="none" opacity="1.000000" stroke="#000000" stroke-linecap="round" stroke-linejoin="round" stroke-width="4.000000"
	d="
M194.000000,185.500000 
	C194.000000,190.333328 194.000000,195.166672 194.000000,200.383606 
	C186.656693,199.921783 179.317749,199.587067 172.002228,198.973511 
	C157.161453,197.728851 142.352631,196.008026 127.492500,195.126404 
	C119.065376,194.626450 110.883934,197.650955 102.507538,198.568817 
	C96.635139,199.212311 90.846848,200.592590 84.992271,201.447052 
	C83.084671,201.725449 81.479416,202.182968 79.977554,203.473877 
	C71.189972,211.027115 62.368057,218.541641 53.469616,225.963562 
	C51.765873,227.384598 51.369583,228.971085 51.484852,231.000854 
	C52.346050,246.165955 53.201439,261.331543 53.985832,276.500732 
	C54.399300,284.496582 54.796787,292.497040 54.978779,300.500488 
	C56.119457,350.663116 55.414986,400.833893 55.376637,450.999908 
	C55.365334,465.785461 56.557781,480.212799 60.258484,494.562286 
	C61.175488,498.117981 62.828152,498.916351 65.362183,500.696198 
	C72.146439,505.461365 79.499321,502.509308 86.505089,503.462616 
	C90.476898,504.003082 94.500000,504.166656 98.500000,504.500000 
"/>
<path fill="none" opacity="1.000000" stroke="#000000" stroke-linecap="round" stroke-linejoin="round" stroke-width="2.000000"
	d="
M227.500000,501.500000 
	C227.166656,496.833344 226.587036,492.168823 226.545929,487.499603 
	C226.419769,473.167358 226.507599,458.833344 226.495880,444.500000 
	C226.491821,439.527863 224.461273,437.503967 219.500000,437.502594 
	C197.500000,437.496552 175.500000,437.500000 153.500000,437.500000 
	C127.500000,437.500000 101.500000,437.494751 75.500000,437.504089 
	C69.810432,437.506104 68.009224,439.306000 68.004738,445.000000 
	C67.991486,461.833344 68.013992,478.666687 67.978165,495.499939 
	C67.974617,497.166962 67.666672,498.833344 67.500000,500.500000 
"/>
<path fill="none" opacity="1.000000" stroke="#000000" stroke-linecap="round" stroke-linejoin="round" stroke-width="3.000000"
	d="
M64.500000,244.500000 
	C64.333336,246.500000 63.996834,248.502548 64.026833,250.499603 
	C64.269615,266.665680 64.045471,282.835175 64.239868,299.003113 
	C64.345726,307.806885 65.787170,315.178894 73.050285,320.430450 
	C76.518532,322.938141 80.458878,324.784546 85.014595,322.529480 
	C87.515526,321.291534 89.933197,323.126007 92.500175,323.122375 
	C102.668053,323.107971 112.860641,322.378601 123.009377,323.938995 
	C127.046333,324.559723 136.013702,317.783142 138.094452,314.052673 
	C141.674713,307.633911 140.949646,300.794708 140.979706,293.999908 
	C141.045319,279.166870 141.000000,264.333344 141.000000,249.500000 
	C141.000000,240.917816 135.564880,236.651489 126.997162,238.486755 
	C126.519096,238.589157 126.000000,238.500000 125.500000,238.500000 
"/>
<path fill="none" opacity="1.000000" stroke="#000000" stroke-linecap="round" stroke-linejoin="round" stroke-width="3.000000"
	d="
M149.000000,411.500000 
	C150.945633,414.191040 149.496292,417.825104 152.026199,421.023315 
	C161.500000,420.661560 171.477203,421.062164 181.506546,420.665436 
	C191.139191,420.284393 200.823868,420.113464 210.509155,420.885193 
	C217.796204,421.465851 225.166672,420.996826 232.500000,421.002350 
	C234.184036,421.003632 235.045197,420.303864 235.018478,418.499725 
	C234.959167,414.493652 235.000000,410.486115 235.000000,406.007599 
	C177.333328,405.756134 120.166664,406.440704 62.500000,405.421417 
	C62.500000,410.820526 62.500000,415.160248 62.500000,419.500000 
"/>
<path fill="none" opacity="1.000000" stroke="#000000" stroke-linecap="round" stroke-linejoin="round" stroke-width="3.000000"
	d="
M231.000000,405.000000 
	C233.955536,396.240326 235.061310,387.212067 235.010284,377.999939 
	C234.962280,369.333557 235.060486,360.666107 234.979721,352.000183 
	C234.921326,345.733490 232.639038,343.739502 226.501541,343.465485 
	C202.671295,342.401764 178.833084,343.175842 154.999786,343.037933 
	C127.000717,342.875916 99.000000,342.999847 71.000000,343.000122 
	C66.266304,343.000153 63.466148,345.625122 63.534050,350.499512 
	C63.724442,364.166077 62.921108,377.842682 63.985287,391.501160 
	C64.353340,396.224976 65.378410,400.747559 67.500000,405.000000 
"/>
<path fill="none" opacity="1.000000" stroke="#000000" stroke-linecap="round" stroke-linejoin="round" stroke-width="3.000000"
	d="
M211.500000,314.000000 
	C209.849899,312.829437 208.200439,311.911469 205.999115,311.954590 
	C199.501602,312.081787 192.992935,311.813202 186.502213,312.058563 
	C181.214752,312.258392 178.165619,314.125977 179.323120,320.531952 
	C179.938660,323.938599 182.412704,323.847168 184.000198,323.849243 
	C192.496994,323.860413 200.996826,324.387970 209.508224,323.587372 
	C214.601837,323.108307 219.732590,323.330505 224.510376,321.021454 
	C227.097107,319.771301 229.135818,318.212769 230.566833,315.535736 
	C233.948715,309.209106 234.612732,302.499481 234.543350,295.499573 
	C234.399658,281.001007 234.161728,266.489532 234.610245,252.003418 
	C234.950623,241.009689 229.535355,237.152023 220.004730,237.600601 
	C203.664124,238.369720 187.328751,237.586685 171.002075,238.070023 
	C166.541107,238.202087 161.939529,238.604935 158.940186,242.958801 
	C157.931122,244.423569 157.481079,245.741776 157.458664,247.499466 
	C157.246094,264.167023 156.989792,280.826050 157.235550,297.503906 
	C157.323105,303.445648 158.307693,308.724731 160.508392,313.996490 
	C163.379700,320.874725 172.593109,324.974121 179.500000,322.500000 
"/>
<path fill="none" opacity="1.000000" stroke="#000000" stroke-linecap="round" stroke-linejoin="round" stroke-width="3.000000"
	d="
M148.500000,344.000000 
	C148.500000,365.500000 148.563370,387.000336 148.444916,408.499695 
	C148.422058,412.650238 145.293900,416.198486 146.156738,421.000000 
	C134.671799,421.000000 123.823357,421.323334 113.003731,420.903717 
	C103.319328,420.528168 93.678062,420.596802 83.996117,420.853516 
	C77.194832,421.033875 70.242393,422.197601 63.500000,420.000000 
"/>
<path fill="none" opacity="1.000000" stroke="#000000" stroke-linecap="round" stroke-linejoin="round" stroke-width="2.000000"
	d="
M136.500000,393.500000 
	C117.500000,393.500000 98.500000,393.500000 79.500000,393.500000 
"/>
<path fill="none" opacity="1.000000" stroke="#000000" stroke-linecap="round" stroke-linejoin="round" stroke-width="2.000000"
	d="
M217.500000,393.500000 
	C198.833328,393.500000 180.166672,393.500000 161.500000,393.500000 
"/>
<path fill="none" opacity="1.000000" stroke="#000000" stroke-linecap="round" stroke-linejoin="round" stroke-width="3.000000"
	d="
M111.500000,420.000000 
	C112.117172,418.072632 114.614708,417.913208 115.116669,415.524506 
	C116.043236,411.115295 113.797615,408.133209 108.499428,408.029297 
	C102.168526,407.905151 95.828285,408.150421 89.502083,407.937958 
	C86.229851,407.828064 83.110718,408.294464 82.157921,411.546265 
	C81.373398,414.223785 81.631332,417.435944 84.987030,419.027344 
	C85.252144,419.153107 85.333336,419.666656 85.500008,420.000000 
"/>
<path fill="none" opacity="1.000000" stroke="#000000" stroke-linecap="round" stroke-linejoin="round" stroke-width="2.000000"
	d="
M210.500000,480.500000 
	C193.500000,480.500000 176.500000,480.500000 159.500000,480.500000 
"/>
<path fill="none" opacity="1.000000" stroke="#000000" stroke-linecap="round" stroke-linejoin="round" stroke-width="3.000000"
	d="
M209.500000,419.000000 
	C211.540268,416.676727 212.948563,414.180054 211.494049,411.002716 
	C209.957947,407.647217 206.935608,407.967255 203.999908,407.988190 
	C198.333527,408.028625 192.665558,408.067871 187.000412,407.974670 
	C183.567886,407.918213 180.419373,407.934967 178.958817,411.985138 
	C177.533768,415.936890 180.382721,417.749237 182.500000,420.000000 
"/>
<path fill="none" opacity="1.000000" stroke="#000000" stroke-linecap="round" stroke-linejoin="round" stroke-width="2.000000"
	d="
M134.500000,480.500000 
	C117.500000,480.500000 100.500000,480.500000 83.500000,480.500000 
"/>
<path fill="none" opacity="1.000000" stroke="#000000" stroke-linecap="round" stroke-linejoin="round" stroke-width="3.000000"
	d="
M147.000000,439.000000 
	C147.000000,460.166656 147.000000,481.333344 147.000000,502.500000 
"/>
<path fill="none" opacity="1.000000" stroke="#000000" stroke-linecap="round" stroke-linejoin="round" stroke-width="2.000000"
	d="
M116.499992,323.000000 
	C117.166664,322.166656 117.937912,321.396118 118.482185,320.489319 
	C121.067520,316.181915 119.044296,311.787720 113.996666,311.581665 
	C106.342758,311.269196 98.659294,311.297577 91.002785,311.576477 
	C86.466614,311.741730 85.242241,314.831879 86.500000,321.500000 
"/>
<path fill="none" opacity="1.000000" stroke="#000000" stroke-linecap="round" stroke-linejoin="round" stroke-width="2.000000"
	d="
M73.500000,347.500000 
	C73.500000,361.000000 73.462120,374.500275 73.561378,387.999542 
	C73.570808,389.282318 72.177597,391.850891 75.500000,391.500000 
"/>
<path fill="none" opacity="1.000000" stroke="#000000" stroke-linecap="round" stroke-linejoin="round" stroke-width="2.000000"
	d="
M224.500000,347.500000 
	C224.500000,365.500000 224.500000,383.500000 224.500000,401.500000 
"/>
<path fill="none" opacity="1.000000" stroke="#000000" stroke-linecap="round" stroke-linejoin="round" stroke-width="2.000000"
	d="
M142.500000,348.500000 
	C142.500000,365.500000 142.500000,382.500000 142.500000,399.500000 
"/>
<path fill="none" opacity="1.000000" stroke="#000000" stroke-linecap="round" stroke-linejoin="round" stroke-width="2.000000"
	d="
M154.500000,348.500000 
	C154.500000,365.833344 154.500000,383.166656 154.500000,400.500000 
"/>
<path fill="none" opacity="1.000000" stroke="#000000" stroke-linecap="round" stroke-linejoin="round" stroke-width="2.000000"
	d="
M99.500000,504.000000 
	C101.112518,502.452179 103.140121,502.966888 104.999084,503.027863 
	C136.167038,504.049133 167.333054,503.196411 198.500244,503.051910 
	C204.498566,503.024078 210.500000,503.666656 216.500000,504.000000 
"/>
<path fill="none" opacity="1.000000" stroke="#000000" stroke-linecap="round" stroke-linejoin="round" stroke-width="2.000000"
	d="
M77.500000,441.500000 
	C77.500000,452.666656 77.454575,463.833771 77.561958,474.999390 
	C77.574303,476.283203 76.177597,478.850891 79.500000,478.500000 
"/>
<path fill="none" opacity="1.000000" stroke="#000000" stroke-linecap="round" stroke-linejoin="round" stroke-width="2.000000"
	d="
M217.500000,440.500000 
	C217.500000,455.833344 217.500000,471.166656 217.500000,486.500000 
"/>
<path fill="none" opacity="1.000000" stroke="#000000" stroke-linecap="round" stroke-linejoin="round" stroke-width="2.000000"
	d="
M141.500000,441.500000 
	C141.500000,456.166656 141.500000,470.833344 141.500000,485.500000 
"/>
<path fill="none" opacity="1.000000" stroke="#000000" stroke-linecap="round" stroke-linejoin="round" stroke-width="2.000000"
	d="
M152.500000,441.500000 
	C152.500000,456.166656 152.500000,470.833344 152.500000,485.500000 
"/>
<path fill="none" opacity="1.000000" stroke="#000000" stroke-linecap="round" stroke-linejoin="round" stroke-width="2.000000"
	d="
M134.500000,225.500000 
	C133.396088,227.333328 135.130966,229.166672 134.224579,231.500000 
	C146.161911,231.500000 157.830948,231.500000 169.500000,231.500000 
"/>
<path fill="none" opacity="1.000000" stroke="#000000" stroke-linecap="round" stroke-linejoin="round" stroke-width="2.000000"
	d="
M105.750000,234.000000 
	C105.381981,234.540543 105.246803,235.859818 104.536781,235.438080 
	C98.891533,232.084824 92.795471,235.007553 86.993065,234.041641 
	C85.202332,233.743546 82.814163,234.392944 83.062057,231.505325 
	C83.308746,228.631699 85.366936,229.345215 87.502586,229.400864 
	C96.496475,229.635239 105.500000,229.500000 114.500000,229.500000 
"/>
<path fill="none" opacity="1.000000" stroke="#000000" stroke-linecap="round" stroke-linejoin="round" stroke-width="2.000000"
	d="
M226.000000,491.000000 
	C222.540741,489.977722 219.007675,490.547485 215.500244,490.485718 
	C208.832718,490.368317 202.166016,490.006012 195.500137,490.033234 
	C181.333023,490.091064 167.166534,490.477753 153.000031,490.463837 
	C134.833221,490.445953 116.654053,489.698517 98.505051,490.187439 
	C88.676712,490.452179 78.791771,489.440491 69.000000,491.000000 
"/>
<path fill="none" opacity="1.000000" stroke="#000000" stroke-linecap="round" stroke-linejoin="round" stroke-width="2.000000"
	d="
M219.500000,245.500000 
	C219.500000,260.666656 219.500000,275.833344 219.500000,291.000000 
"/>
<path fill="none" opacity="1.000000" stroke="#000000" stroke-linecap="round" stroke-linejoin="round" stroke-width="2.000000"
	d="
M172.500000,245.500000 
	C172.500000,263.000000 172.492722,280.500000 172.511719,298.000000 
	C172.513550,299.674469 172.198730,301.396790 173.000000,303.000000 
"/>
<path fill="none" opacity="1.000000" stroke="#000000" stroke-linecap="round" stroke-linejoin="round" stroke-width="2.000000"
	d="
M116.500000,241.500000 
	C108.833336,241.500000 101.166664,241.500000 93.500000,241.500000 
"/>
<path fill="none" opacity="1.000000" stroke="#000000" stroke-linecap="round" stroke-linejoin="round" stroke-width="2.000000"
	d="
M126.500000,248.500000 
	C126.500000,261.833344 126.500000,275.166656 126.500000,288.500000 
"/>
<path fill="none" opacity="1.000000" stroke="#000000" stroke-linecap="round" stroke-linejoin="round" stroke-width="2.000000"
	d="
M112.500000,308.500000 
	C106.166664,308.500000 99.833336,308.500000 93.500000,308.500000 
"/>
<path fill="none" opacity="1.000000" stroke="#000000" stroke-linecap="round" stroke-linejoin="round" stroke-width="2.000000"
	d="
M119.500000,227.500000 
	C121.857956,228.256607 124.215904,229.013214 126.843513,229.856339 
	C125.198845,233.147018 122.500671,234.516006 119.500000,235.500000 
"/>
<path fill="none" opacity="1.000000" stroke="#000000" stroke-linecap="round" stroke-linejoin="round" stroke-width="3.000000"
	d="
M121.000000,234.000000 
	C116.166664,232.642471 111.333336,232.212997 106.500000,234.000000 
"/>
<path fill="none" opacity="1.000000" stroke="#000000" stroke-linecap="round" stroke-linejoin="round" stroke-width="2.000000"
	d="
M126.000000,291.000000 
	C126.978096,293.275360 126.369537,295.665649 126.481689,298.000885 
	C126.603439,300.535980 126.169395,303.132965 127.500000,305.500000 
"/>
<path fill="none" opacity="1.000000" stroke="#000000" stroke-linecap="round" stroke-linejoin="round" stroke-width="2.000000"
	d="
M219.500000,292.000000 
	C219.254654,295.663086 220.028702,299.372528 219.000000,303.000000 
"/>
<path fill="none" opacity="1.000000" stroke="#000000" stroke-linecap="round" stroke-linejoin="round" stroke-width="2.000000"
	d="
M73.500000,392.000000 
	C73.500000,395.166656 73.500000,398.333344 73.500000,401.500000 
"/>
<path fill="none" opacity="1.000000" stroke="#000000" stroke-linecap="round" stroke-linejoin="round" stroke-width="3.000000"
	d="
M212.500000,314.500000 
	C213.522934,317.166656 212.731979,319.833344 212.500000,322.500000 
"/>
<path fill="none" opacity="1.000000" stroke="#000000" stroke-linecap="round" stroke-linejoin="round" stroke-width="2.000000"
	d="
M77.500000,479.000000 
	C77.500000,481.500000 77.500000,484.000000 77.500000,486.500000 
"/>
<path fill="none" opacity="1.000000" stroke="#000000" stroke-linecap="round" stroke-linejoin="round" stroke-width="2.000000"
	d="
M84.500000,238.499985 
	C81.666672,238.166656 78.835167,237.578018 75.999588,237.557724 
	C71.341599,237.524368 67.591965,239.529724 65.000000,243.500000 
"/>
<path fill="none" opacity="1.000000" stroke="#000000" stroke-linecap="round" stroke-linejoin="round" stroke-width="2.000000"
	d="
M131.500000,196.000000 
	C131.500000,198.166672 131.500000,200.333328 131.500000,202.500000 
"/>
<path fill="none" opacity="1.000000" stroke="#000000" stroke-linecap="round" stroke-linejoin="round" stroke-width="2.000000"
	d="
M167.500000,199.000000 
	C167.500000,201.166672 167.500000,203.333328 167.500000,205.500000 
"/>
<path fill="none" opacity="1.000000" stroke="#000000" stroke-linecap="round" stroke-linejoin="round" stroke-width="2.000000"
	d="
M72.000000,237.500000 
	C70.073929,235.602798 67.657410,236.893494 65.500000,236.500000 
"/>
<path fill="none" opacity="1.000000" stroke="#000000" stroke-linecap="round" stroke-linejoin="round" stroke-width="2.000000"
	d="
M118.500000,496.500000 
	C118.733620,498.494415 117.950775,500.573547 119.000000,502.500000 
"/>
<path fill="none" opacity="1.000000" stroke="#000000" stroke-linecap="round" stroke-linejoin="round" stroke-width="2.000000"
	d="
M164.500000,225.500000 
	C164.500000,227.333328 164.500000,229.166672 164.500000,231.000000 
"/>
<path fill="none" opacity="1.000000" stroke="#000000" stroke-linecap="round" stroke-linejoin="round" stroke-width="2.000000"
	d="
M221.000000,238.500000 
	C220.833328,240.166672 220.666672,241.833328 220.500000,243.500000 
"/>
<path fill="none" opacity="1.000000" stroke="#000000" stroke-linecap="round" stroke-linejoin="round" stroke-width="2.000000"
	d="
M243.000000,239.500000 
	C241.500000,239.500000 240.000000,239.500000 238.500000,239.500000 
"/>
<path fill="none" opacity="1.000000" stroke="#000000" stroke-linecap="round" stroke-linejoin="round" stroke-width="2.000000"
	d="
M171.500000,239.000000 
	C171.500000,240.500000 171.500000,242.000000 171.500000,243.500000 
"/>
<path fill="none" opacity="1.000000" stroke="#000000" stroke-linecap="round" stroke-linejoin="round" stroke-width="2.000000"
	d="
M174.500000,496.500000 
	C175.840652,498.402161 175.760803,500.422699 175.000000,502.500000 
"/>
<path fill="none" opacity="1.000000" stroke="#000000" stroke-linecap="round" stroke-linejoin="round" stroke-width="2.000000"
	d="
M73.500000,235.500000 
	C75.183334,235.500000 76.866669,235.500000 78.059807,235.500000 
	C79.913399,237.500000 77.805092,239.000000 78.500000,240.500000 
"/>
</svg>